<svg xmlns="http://www.w3.org/2000/svg" width="229.5" height="216.5" viewBox="0 0 229.5 216.5">
  <g id="FTMDAI" transform="translate(2653 -3135)">
    <g id="Group_1096" data-name="Group 1096" transform="translate(-11158.499 -1972)">
      <circle id="Ellipse_37" data-name="Ellipse 37" cx="91" cy="91" r="91" transform="translate(8550.499 5139)" fill="#eb9a39" stroke="#fff" stroke-width="5"/>
    </g>
    <g id="Сгруппировать_1614" data-name="Сгруппировать 1614" transform="translate(-102 270)">
      <g id="Эллипс_42" data-name="Эллипс 42" transform="translate(-2546 2870)" fill="#13b5ec" stroke="#fff" stroke-width="5">
        <circle cx="44" cy="44" r="44" stroke="none"/>
        <circle cx="44" cy="44" r="46.5" fill="none"/>
      </g>
      <g id="Сгруппировать_1792" data-name="Сгруппировать 1792" transform="translate(-2520.091 2884)">
        <path id="Контур_17242" data-name="Контур 17242" d="M31.709,26.8l10.854-6.332V33.136ZM42.563,53.94,28.09,62.382,13.618,53.94V39.166L28.09,47.608l14.472-8.442ZM13.618,20.472,24.472,26.8,13.618,33.136ZM29.9,29.819l10.854,6.332L29.9,42.482ZM26.281,42.482,15.427,36.151l10.854-6.332ZM40.754,17.457,28.09,24.693,15.427,17.457,28.09,9.92ZM10,16.251v39.5L28.09,66l18.09-10.251v-39.5L28.09,6Z" transform="translate(-10 -6)" fill="#fff" fill-rule="evenodd"/>
      </g>
    </g>
    <path id="Контур_17388" data-name="Контур 17388" d="M134.856,148.434H165.05c.644,0,.948,0,.994-.844a57.71,57.71,0,0,0,0-9.236c0-.6-.3-.844-.944-.844H105.009c-.744,0-.944.247-.944.944v8.839c0,1.141,0,1.141,1.191,1.141h29.6Zm27.816-21.255a.967.967,0,0,0,0-.694,19.639,19.639,0,0,0-1.8-3.129,25.336,25.336,0,0,0-3.676-4.62,12.186,12.186,0,0,0-2.285-2.235,35.7,35.7,0,0,0-14.9-7.548,37.039,37.039,0,0,0-8.442-.894H104.906c-.744,0-.844.3-.844.944v17.629c0,.744,0,.944.944.944h57.309s.5-.1.6-.4h-.243Zm0,31.585a11.588,11.588,0,0,0-2.539,0H105.059c-.744,0-.994,0-.994.994v17.235c0,.794,0,.994.994.994h25.427a12.7,12.7,0,0,0,3.622-.247,37.852,37.852,0,0,0,10.781-2.385,19.73,19.73,0,0,0,3.622-1.688h.347a32.264,32.264,0,0,0,13.856-13.949s.347-.751-.043-.948ZM94.085,186.923V159.461c0-.647,0-.744-.794-.744H82.514c-.6,0-.844,0-.844-.794v-9.436H93.191c.644,0,.894,0,.894-.844v-9.336c0-.6,0-.744-.794-.744H82.514c-.6,0-.844,0-.844-.794V128.03c0-.547,0-.694.794-.694H93.141c.744,0,.944,0,.944-.944V99.624c0-.794,0-.994.994-.994h37.245a56.748,56.748,0,0,1,8.046.894,48.545,48.545,0,0,1,15.544,5.761,43.806,43.806,0,0,1,8.739,6.755,47.856,47.856,0,0,1,5.314,6.6,39.83,39.83,0,0,1,3.88,7.6,1.293,1.293,0,0,0,1.484,1.044h8.889c1.141,0,1.141,0,1.191,1.094v8.146c0,.794-.3.994-1.094.994h-6.855c-.694,0-.894,0-.844.894a50.733,50.733,0,0,1,0,9.086c0,.844,0,.944.948.944h7.842c.347.447,0,.894,0,1.344a10.034,10.034,0,0,1,0,1.734v6.011c0,.844-.247,1.094-.994,1.094h-9.386a1.243,1.243,0,0,0-1.441.944,39.713,39.713,0,0,1-10.431,15.2,59.838,59.838,0,0,1-5.314,4.269c-1.988,1.144-3.923,2.335-5.961,3.279a53.693,53.693,0,0,1-11.721,3.722,61.107,61.107,0,0,1-11.621.944H94.071v-.05Z" transform="translate(-2648.616 3115.19)" fill="#fefefd"/>
  </g>
</svg>
