<svg xmlns="http://www.w3.org/2000/svg" width="229.5" height="216.5" viewBox="0 0 229.5 216.5">
  <g id="DeapFTM" transform="translate(2653 -3135)">
    <g id="Group_1096" data-name="Group 1096" transform="translate(-11158.499 -1972)">
      <circle id="Ellipse_37" data-name="Ellipse 37" cx="91" cy="91" r="91" transform="translate(8550.499 5139)" fill="#d19e3a" stroke="#fff" stroke-width="5"/>
    </g>
    <g id="Сгруппировать_1614" data-name="Сгруппировать 1614" transform="translate(-102 270)">
      <g id="Эллипс_42" data-name="Эллипс 42" transform="translate(-2546 2870)" fill="#13b5ec" stroke="#fff" stroke-width="5">
        <circle cx="44" cy="44" r="44" stroke="none"/>
        <circle cx="44" cy="44" r="46.5" fill="none"/>
      </g>
      <g id="Сгруппировать_1792" data-name="Сгруппировать 1792" transform="translate(-2520.091 2884)">
        <path id="Контур_17242" data-name="Контур 17242" d="M31.709,26.8l10.854-6.332V33.136ZM42.563,53.94,28.09,62.382,13.618,53.94V39.166L28.09,47.608l14.472-8.442ZM13.618,20.472,24.472,26.8,13.618,33.136ZM29.9,29.819l10.854,6.332L29.9,42.482ZM26.281,42.482,15.427,36.151l10.854-6.332ZM40.754,17.457,28.09,24.693,15.427,17.457,28.09,9.92ZM10,16.251v39.5L28.09,66l18.09-10.251v-39.5L28.09,6Z" transform="translate(-10 -6)" fill="#fff" fill-rule="evenodd"/>
      </g>
    </g>
    <g id="Layer_2" data-name="Layer 2" transform="translate(-2592.816 3197.23)">
      <g id="レイヤー_1" data-name="レイヤー 1" transform="translate(6.647)">
        <path id="Контур_16909" data-name="Контур 16909" d="M147.967,106.727l-16.543,28.736-5.34-9.164,10.264-19.572H87l33,56.609L131.548,143.5l2.855-4.89,18.582-31.9Zm-17.057,3.4-7.086,12.265-7.146-12.244ZM120,155.081,93.819,110.147h18.34l16.993,29.194Z" transform="translate(-50.83 -61.376)" fill="#fff"/>
        <path id="Контур_16910" data-name="Контур 16910" d="M154.677,0H100.91l63.045,40.367Z" transform="translate(-58.831)" fill="#fff"/>
        <path id="Контур_16911" data-name="Контур 16911" d="M79.04,40.41h72.336L88.331,0Z" transform="translate(-46.252)" fill="#fff"/>
        <path id="Контур_16912" data-name="Контур 16912" d="M210.6,218.336l26.879-46.566L171,206.186Z" transform="translate(-99.144 -98.797)" fill="#fff"/>
        <path id="Контур_16913" data-name="Контур 16913" d="M207.086,105.29,170.92,167.931l66.516-34.4Z" transform="translate(-99.098 -60.56)" fill="#fff"/>
        <path id="Контур_16914" data-name="Контур 16914" d="M28.743,218.336,1.86,171.77l66.486,34.416Z" transform="translate(-1.86 -98.797)" fill="#fff"/>
        <path id="Контур_16915" data-name="Контур 16915" d="M32.214,105.29,68.38,167.931l-66.52-34.4Z" transform="translate(-1.86 -60.56)" fill="#fff"/>
      </g>
    </g>
  </g>
</svg>
