<svg xmlns="http://www.w3.org/2000/svg" width="227" height="214" viewBox="0 0 227 214">
  <g id="DEFYUSDC" transform="translate(4869 -3386)">
    <circle id="Ellipse_37" data-name="Ellipse 37" cx="91" cy="91" r="91" transform="translate(-4824 3418)"/>
    <g id="Сгруппировать_1614" data-name="Сгруппировать 1614" transform="translate(-2318 521)">
      <g id="Эллипс_42" data-name="Эллипс 42" transform="translate(-2546 2870)" fill="#2775ca" stroke="#fff" stroke-width="5">
        <circle cx="44" cy="44" r="44" stroke="none"/>
        <circle cx="44" cy="44" r="46.5" fill="none"/>
      </g>
      <g id="Сгруппировать_1794" data-name="Сгруппировать 1794" transform="translate(-82.433 93.298)">
        <path id="Контур_17248" data-name="Контур 17248" d="M739.907,535.382c0-6.069-3.642-8.15-10.925-9.017-5.2-.694-6.243-2.081-6.243-4.509s1.734-3.988,5.2-3.988c3.121,0,4.856,1.04,5.723,3.642a1.3,1.3,0,0,0,1.214.867h2.774a1.185,1.185,0,0,0,1.214-1.214v-.174a8.663,8.663,0,0,0-7.8-7.11v-4.162c0-.694-.52-1.214-1.387-1.388h-2.6c-.694,0-1.214.52-1.388,1.388v3.988c-5.2.694-8.5,4.162-8.5,8.5,0,5.723,3.468,7.977,10.751,8.844,4.856.867,6.416,1.907,6.416,4.682s-2.428,4.682-5.723,4.682c-4.509,0-6.07-1.908-6.59-4.509a1.267,1.267,0,0,0-1.214-1.04h-2.948a1.185,1.185,0,0,0-1.214,1.214v.174c.693,4.335,3.468,7.456,9.191,8.324v4.162c0,.693.52,1.214,1.387,1.387h2.6c.694,0,1.214-.52,1.388-1.387v-4.162C736.439,543.706,739.907,540.064,739.907,535.382Z" transform="translate(-3148.029 2291.389)" fill="#fff"/>
        <path id="Контур_17249" data-name="Контур 17249" d="M270.42,345.947a25.949,25.949,0,0,1,0-48.728,1.741,1.741,0,0,0,1.04-1.734v-2.428a1.318,1.318,0,0,0-1.04-1.387,1.044,1.044,0,0,0-.694.173,31.206,31.206,0,0,0,0,59.48,1.054,1.054,0,0,0,1.561-.694c.174-.173.174-.347.174-.693v-2.428A2.31,2.31,0,0,0,270.42,345.947Zm18.382-54.1a1.054,1.054,0,0,0-1.561.694c-.174.174-.174.347-.174.694v2.428a2.3,2.3,0,0,0,1.04,1.734,25.949,25.949,0,0,1,0,48.728,1.741,1.741,0,0,0-1.04,1.734v2.428a1.318,1.318,0,0,0,1.04,1.387,1.044,1.044,0,0,0,.694-.173,31.339,31.339,0,0,0,0-59.654Z" transform="translate(-2698.831 2499.032)" fill="#fff"/>
      </g>
    </g>
    <g id="Layer_2" data-name="Layer 2" transform="translate(-4797 3459.192)">
      <g id="Layer_1" data-name="Layer 1" transform="translate(0 0.002)">
        <path id="Контур_17840" data-name="Контур 17840" d="M128.435,151.011c-1.2-7.191-.464-14.052,3.3-20.431a5.267,5.267,0,0,1,3.317,1.777,14.562,14.562,0,0,1,2.813,3.2,25.95,25.95,0,0,0-.761,4.365c-.351.572.144,1.567-.9,1.8a4.009,4.009,0,0,1-.153-1.351c-.069-.192-.228.144-.063.03.147.683.021,1.441.536,2.031a27.309,27.309,0,0,1,.147,4.4,4.344,4.344,0,0,0,.126,1.69,17.523,17.523,0,0,1,.324,2.127c-.057.333-.141.641-.554.68a1.594,1.594,0,0,1-.677-1.2c-.057-.542-.168-1.079-.255-1.618-.3-1.777-.39-1.834-1.992-.86-1.109.674-2.235,1.312-3.392,1.885a4.815,4.815,0,0,0-1.813,1.474Z" transform="translate(-89.583 -91.457)" fill="#f143fe"/>
        <path id="Контур_17841" data-name="Контур 17841" d="M93.079,61.2a.255.255,0,0,1,.249-.033c.578-.342,1.288.117,1.855-.3a54.61,54.61,0,0,1,8.689-.282c-.476,1.136-1.483.6-2.271.725-3.323.1-3.149-.746-2.9,3.221.021.348.024.692.015,1.04-.057,2.4.039,2.508,2.355,3.1a.833.833,0,0,1,.479.33c-1.414.183-2.831.333-4.24.554a13.106,13.106,0,0,0-8.138,4.132c-4.072.653-6.927,3.062-9.144,6.376-.539.806-.276,1.744-.318,2.628-.027.6,0,1.2.03,1.8a24.707,24.707,0,0,0,.27,4.821,5.224,5.224,0,0,1-.237,2.6c-.569.375-.683-.129-.77-.464a13.782,13.782,0,0,1-.491-2.337,6.747,6.747,0,0,0-.12-2.936c-.168-1.282-.054-2.571-.1-3.853-.213-1.112.464-2.1.446-3.185a35.158,35.158,0,0,1,2.1-5.678,22.22,22.22,0,0,1,4.929-3.317,17.914,17.914,0,0,0,5.483-3.3,3.622,3.622,0,0,0,1.174-2.8A3.99,3.99,0,0,1,93.079,61.2Z" transform="translate(-54.806 -42.41)" fill="#d83cfe"/>
        <path id="Контур_17842" data-name="Контур 17842" d="M12.37,250.624a6.358,6.358,0,0,1-1.48-2.4c.428-.446.995-.378,1.531-.407a9.34,9.34,0,0,0,4.965-1.3,3.908,3.908,0,0,1,2.145-.5,6.939,6.939,0,0,0,3.4-.926,15.331,15.331,0,0,1,3.715.6l.09.117c-1.231.926-.482,1.534.144,2.493,1.115,1.7.473,3.631,0,5.459-.048.195.021-.048-.051.141-.782,2.022-.782,2.022,1.465,2,.536-.015,1.07,0,1.606,0,.381.018.761,0,1.142.024h2.628c.228,0,.455,0,.683-.015.321,0,.638,0,.956-.021.764-.024,1.525-.021,2.286,0,.881.033,1.8-.243,2.577.452-.428.384-.95.2-1.426.2-4.962,0-9.923.036-14.885-.027a9.964,9.964,0,0,1-4.638-.764c-.4-.443-.318-1.013-.41-1.54-.369-2.076-1.546-3.853-4.15-3.3A3.1,3.1,0,0,1,12.37,250.624Z" transform="translate(-7.627 -171.658)" fill="#e140fb"/>
        <path id="Контур_17843" data-name="Контур 17843" d="M262.27,223.31l2.649-3.11a2.211,2.211,0,0,1,.369,2.244c-.914,4.018-2.343,7.736-5.774,10.412a24.207,24.207,0,0,1-4.539,3.326,24.3,24.3,0,0,1-7.529,1.693,20.713,20.713,0,0,1-8.389-1.819c-1.058-.437-2.3-.806-2.616-2.2a10.718,10.718,0,0,1,5.693.1c6.858,2.595,14.489-.6,18.277-6.618A21.868,21.868,0,0,0,262.27,223.31Z" transform="translate(-165.599 -154.225)" fill="#31c8fb"/>
        <path id="Контур_17844" data-name="Контур 17844" d="M97.016,184.039a31.68,31.68,0,0,1,.132,8.3,22.075,22.075,0,0,1-.725,5.288c-.381-.95-.9-1.115-1.879-.635a5.759,5.759,0,0,0-2.613,2.289c-.665,1.139-1.7,2.022-2.223,3.3a.924.924,0,0,1-1.48.413A2.464,2.464,0,0,1,89,200.545c1.231-1.5,2.25-3.149,3.356-4.737,1.546-2.22,1.48-3.9-.2-5.992a6.708,6.708,0,0,1-.971-1.989c-.662-1.8-.384-3.763-.944-5.582a2.025,2.025,0,0,1,.243-1.447c.9-1.891,1.78-3.79,2.741-5.648.39-.752.872-1.606,1.977-1.546l.9,4.794a2.172,2.172,0,0,0-1.78,1.393c-.422.851-.617,1.8-1.091,2.619a.56.56,0,0,0-.1.428c1.01,2.789,1.234,5.9,3.464,8.47v-5.435C96.63,185.24,96.474,184.554,97.016,184.039Z" transform="translate(-61.719 -121.587)" fill="#be35fe"/>
        <path id="Контур_17845" data-name="Контур 17845" d="M246.05,222.058a22.537,22.537,0,0,1-11.958,5.318,97.024,97.024,0,0,1-12.836.419c.1-.848.8-.626,1.315-.731,1.426,0,2.852.054,4.288-.069a46.118,46.118,0,0,1-5.615-1.819c-2.843-1.082-4.875-3.2-7.128-5.043a1.569,1.569,0,0,1-.668-1.7,1.522,1.522,0,0,1,.9-.051c1.783,1.2,3.3,2.715,5.093,3.913a20.476,20.476,0,0,0,9.791,3.3,21.822,21.822,0,0,0,10.654-1.822,21,21,0,0,0,8.006-6.085,21.956,21.956,0,0,0,4.132-8.515,16.71,16.71,0,0,0,.36-8.248,1.228,1.228,0,0,1,.027-.734,4.719,4.719,0,0,1,.821-1.813c.416-.135.527.156.578.452.8,4.728.731,9.342-1.234,13.86-1.408,3.236-2.942,6.292-5.917,8.389A1.2,1.2,0,0,0,246.05,222.058Z" transform="translate(-149.451 -138.912)" fill="#2dbcf9"/>
        <path id="Контур_17846" data-name="Контур 17846" d="M99.087,62.71c-.12,1.279-.27,2.553-.348,3.838-.1,1.588-1.45,2.484-2.613,3.257a18.984,18.984,0,0,1-4.332,2.244c-1.855.635-3.062,2.367-4.965,2.918,1.78-5.929,5-10.5,11.385-12.122C98.494,62.773,98.794,62.755,99.087,62.71Z" transform="translate(-60.814 -43.922)" fill="#dc3dfe"/>
        <path id="Контур_17847" data-name="Контур 17847" d="M91.634,164.947a5.534,5.534,0,0,0-2.1,2.616c-.6,1.468-1.387,2.855-2.1,4.279a3.36,3.36,0,0,0-.183,2.529c.384,1.561.246,3.236.749,4.821a3.321,3.321,0,0,0,.749,1.585c1.977,1.729,1.768,4.758.276,6.825-1.543,2.133-3.58,4.015-4.291,6.7.27,1.171-.416,2.169-.6,3.26h-.9c-.656-.836.413-1.609.081-2.433a1.534,1.534,0,0,1,.264-.851c.815-1.363,1.124-2.96,2.019-4.293a11.72,11.72,0,0,1,1.48-2.025c1.393-1.351,1.516-4.452.072-6.232-1.924-2.361-2.271-5.114-2.493-7.952a5.135,5.135,0,0,1,.449-2.322c1.2-2.9,2.619-5.693,4.075-8.461a8.02,8.02,0,0,1,.632-1.01c.258-.351.467-.863,1.013-.713s.279.662.327,1.028a.9.9,0,0,0,.153.554A5.8,5.8,0,0,1,91.634,164.947Z" transform="translate(-58.149 -112.931)" fill="#c236fe"/>
        <path id="Контур_17848" data-name="Контур 17848" d="M229.473,1.1a.767.767,0,0,1,.491-1.073c.389-.132.617.258.809.527.845,1.2,2,2.169,2.6,3.544a25.539,25.539,0,0,0,1.959,5.073c2.424,5.013,4.365,10.229,6.684,15.28.575,1.258,1.243,1.983,2.7,1.684.677-.027,1.351,0,2.028,0,.995.051,2.055-.3,2.927.476a51.1,51.1,0,0,1-9.381,0,2.461,2.461,0,0,1-1.1-1.516,66.883,66.883,0,0,0-3.925-9.216c-.983-1.909-1.48-4.009-2.4-5.944q-1.549-3.218-3.1-6.436h0C229.4,2.749,229.9,1.868,229.473,1.1Z" transform="translate(-160.666 -0.002)" fill="#9d2cfe"/>
        <path id="Контур_17849" data-name="Контур 17849" d="M179.56,241.024l-.98.078c-.6.449-1.321.264-2,.321-.8.039-1.6-.018-2.4,0-.7.045-1.411-.021-2.115,0-.791.027-1.585,0-2.376,0-.779.03-1.561.027-2.34,0s-1.519,0-2.277-.018a2.735,2.735,0,0,1-1.219-.2.318.318,0,0,1-.177-.4l10.466-.015c5.831,0,11.685-.246,17.495.024,5.917.276,10.666-1.983,14.906-5.759,1.633-1.453,3.17-3.02,4.749-4.536.3,2.223-1.139,3.808-2.3,5.336a15.682,15.682,0,0,1-13.438,6.625,12.116,12.116,0,0,1-4.86-1.169c-1.612-.746-3.428-.195-5.15-.267-.7.6-1.546.318-2.334.392-.53.039-1.058,0-1.588,0a3.527,3.527,0,0,1-2.073-.4Z" transform="translate(-114.627 -161.446)" fill="#34cefb"/>
        <path id="Контур_17850" data-name="Контур 17850" d="M91.52,157.9c-.512-.3-.087-.977-.6-1.408a10.37,10.37,0,0,0-1.633,2.565c-1.282,2.637-2.969,5.138-3.685,7.973a10.267,10.267,0,0,0,1.744,8.988,6.075,6.075,0,0,1,.719,6.822c-.4.875-1.417,1.5-1.983,2.448-.83,1.4-1.106,3.041-2.046,4.371-.767-1.531.3-2.786.725-4.087a13.387,13.387,0,0,1,1.39-2.8,3.731,3.731,0,0,0-.243-4.021,14.206,14.206,0,0,1-2.583-7.326,34.607,34.607,0,0,1,.117-4.563c1.7-2.771,2.735-5.858,4.072-8.8.617-1.36,1.867-2.2,2.457-3.532a.6.6,0,0,1,.767-.315c.629.243.108.941.479,1.3A6.5,6.5,0,0,1,91.52,157.9Z" transform="translate(-58.346 -107.979)" fill="#c437fe"/>
        <path id="Контур_17851" data-name="Контур 17851" d="M155.429,163.386c.527-.518.045-1.306.494-1.846,1.133.71,2.4.413,3.625.485.968,1.082,1.2,2.586,2.193,3.682.455.5.773,1.145,1.246,1.663.4.434.665.932-.078,1.333-1.309.578-2.64,1.115-3.922,1.75a3.832,3.832,0,0,0-2.2,2.819.431.431,0,0,1-.554,0c-.219-.279.063-.674-.216-.941l-.324-2.082c-.3-.467.06-1.058-.27-1.525l-.018-4.761a.375.375,0,0,1,.018-.578Z" transform="translate(-108.758 -113.14)" fill="#9f2cfe"/>
        <path id="Контур_17852" data-name="Контур 17852" d="M228.718,229.92h2.4a5.263,5.263,0,0,0,2.511,1.8c4.842,2.082,9.753,2.649,14.735.461a3.2,3.2,0,0,1,1.312-.2,17.977,17.977,0,0,0,7.517-6.744,18.312,18.312,0,0,0,2.912-9.12,3.31,3.31,0,0,1,.321-.992l.345-.509c.809.108.62.788.68,1.27.491,3.943-1.037,7.3-3.086,10.487-3.242,5.073-8.033,7.79-13.8,8.806a17.588,17.588,0,0,1-11.685-2.031,23.484,23.484,0,0,1-3-1.645C229.317,231.113,228.619,230.792,228.718,229.92Z" transform="translate(-160.184 -150.31)" fill="#30c4fa"/>
        <path id="Контур_17853" data-name="Контур 17853" d="M139.345,284.117q-4.689-5.714-9.033-11.685a24.382,24.382,0,0,0-1.879-4.647,4.785,4.785,0,0,1-.758-2.64,2.624,2.624,0,0,1,.9-.072,10.816,10.816,0,0,1,1.124.024c.944.971,1.028,2.334,1.585,3.485a46.457,46.457,0,0,0,5.84,9.483,36.1,36.1,0,0,0,9.321,8.47,1.381,1.381,0,0,1,.3.324c.455.6.2,1.276.234,1.918-.965.53-1.546-.177-2.166-.7a45.586,45.586,0,0,0-5.465-3.961Z" transform="translate(-89.402 -185.646)" fill="#1880f3"/>
        <path id="Контур_17854" data-name="Контур 17854" d="M225.176,226.426c1.543,1.959,3.853,2.876,5.992,3.721a18.417,18.417,0,0,0,14.2-.051,20.043,20.043,0,0,0,10.358-9.492,14.9,14.9,0,0,0,1.855-6.337,6.392,6.392,0,0,0-.357-3.149l1.2-1.5c1.121,1,.71,2.331.647,3.512a19.662,19.662,0,0,1-2.747,9.345,21.2,21.2,0,0,1-21.177,10.148,20.25,20.25,0,0,1-8.5-3.359,4.737,4.737,0,0,0-1.088-.488c-.845-.6-2.121-.869-1.882-2.346Z" transform="translate(-156.642 -146.815)" fill="#2fc2fa"/>
        <path id="Контур_17855" data-name="Контур 17855" d="M82.25,145.491v5.093a.348.348,0,0,1-.482-.156,3.675,3.675,0,0,1-.282-1.747c-.087-3.428.192-6.864-.267-10.286a2.109,2.109,0,0,1,.407-1.834q0-1.375.024-2.75c1.273-2.1,2.031-4.437,3.407-6.478.959-1.417,2.481-2.121,3.718-3.185a.5.5,0,0,1,.68.078c0,.2-.024.4-.033.6a24.983,24.983,0,0,0-.144,3.988c-.434,1.258-1.5,2.082-2.268,3.089a15.418,15.418,0,0,0-2.232,3.994,25.717,25.717,0,0,1-1.759,4.093,5.667,5.667,0,0,0-.378,2.762C82.589,143.687,82.876,144.649,82.25,145.491Z" transform="translate(-56.855 -86.883)" fill="#cd39fe"/>
        <path id="Контур_17856" data-name="Контур 17856" d="M218.857,222.86c.2,1.034,1.171,1.39,1.8,2.052,4.437,3.529,9.534,4.677,15.089,4.195a20.03,20.03,0,0,0,9.723-3.751,19.451,19.451,0,0,0,8.218-12.113,17.426,17.426,0,0,0,.369-6.945,1.573,1.573,0,0,1,.144-1.151.794.794,0,0,1,.6-.626c1.2,2.172.947,4.545.521,6.756a22.993,22.993,0,0,1-2.721,8.144,23.969,23.969,0,0,1-7.32,7.472,22.093,22.093,0,0,1-14.459,3.35,17.735,17.735,0,0,1-10.112-3.97c-1.312-1.127-2.927-1.912-3.916-3.41Z" transform="translate(-151.836 -143.243)" fill="#2ebefa"/>
        <path id="Контур_17857" data-name="Контур 17857" d="M253.06,36.1a2.024,2.024,0,0,1-2.583-1.453c-2.816-6.66-5.768-13.267-8.668-19.892a.815.815,0,0,1,.174-1.079,31.909,31.909,0,0,1,4.494,5.693c1.019,2.616,2.115,5.2,3.209,7.79s2.5,4.968,3.263,7.658A1.67,1.67,0,0,1,253.06,36.1Z" transform="translate(-169.273 -9.582)" fill="#982bfe"/>
        <path id="Контур_17858" data-name="Контур 17858" d="M155.17,60.26c.791-.138,1.657.3,2.4-.3,4.584-.342,9.174-.33,13.764-.273-.632,1.2-1.759.527-2.661.7-1.2.027-2.415.03-3.619,0a20.446,20.446,0,0,0-2.966.069c-.992.144-1.279.569-.83,1.513.641,1.342,1.408,2.625,1.933,4.015.261.689.827,1.4.243,2.2-1.444.036-2.891-.024-4.332.03a1.277,1.277,0,0,1-1.471-.95,39.019,39.019,0,0,0-2.367-5.315C155,61.4,154.714,60.845,155.17,60.26Z" transform="translate(-108.51 -41.783)" fill="#d03afe"/>
        <path id="Контур_17859" data-name="Контур 17859" d="M230.58,11.72a1.4,1.4,0,0,1,.863.779c1.142,2.813,2.858,5.372,3.718,8.293.662,2.3,1.948,4.311,2.861,6.5.878,2.1,1.774,4.171,2.487,6.328a8.861,8.861,0,0,0,.6,1.177l-1.5-.015a2.223,2.223,0,0,1-1.414-1.387c-1.7-3.847-3.532-7.64-4.875-11.637a5.033,5.033,0,0,0-.542-1.058,7.883,7.883,0,0,1-1.591-3.9,25.483,25.483,0,0,1-.608-5.081Z" transform="translate(-161.495 -8.209)" fill="#a42efe"/>
        <path id="Контур_17860" data-name="Контур 17860" d="M147.717,61.664c.021,1.2.845,2.1,1.276,3.137a9.083,9.083,0,0,1,.9,1.876c.333,2.7,2.028,3.1,4.285,2.783a14.381,14.381,0,0,1,1.936,0c1.411-.857,2.954-.33,4.437-.431q1.945-.063,3.9,0c.926.177,2.07-.509,2.739.692l-19.385.06c-.2,0-.4-.027-.6-.03-2.583-.039-2.81-.183-2.73-2.825a35.237,35.237,0,0,0-.171-4.539c-.072-.737.285-.716.749-.722C145.934,61.658,146.824,61.664,147.717,61.664Z" transform="translate(-101.058 -43.187)" fill="#d53bfe"/>
        <path id="Контур_17861" data-name="Контур 17861" d="M37.739,132.636l.027,4.195a2.085,2.085,0,0,1-.111,1.855c-.147.018-.318.045-.422-.06-1.372-1.39-3.062-1.354-4.8-1.091a83.878,83.878,0,0,0-11.02,1.046c-1.273.228-1.432.09-1.63-.854a6.469,6.469,0,0,1,1.483-1.825c4.758-.509,9.486-1.255,14.208-2.034,1.741-.3,1.744-.282,1.822,1.537,0,.15,0,.3.117.3-.2-.806-.093-1.678-.213-2.523a.473.473,0,0,1,.542-.545Z" transform="translate(-13.854 -92.892)" fill="#9229fe"/>
        <path id="Контур_17862" data-name="Контур 17862" d="M107.57,194.365v8a3.4,3.4,0,0,1-1.825-2.07c-.716-1.8-2.1-3.4-1.684-5.54,0-.048.033-.12,0-.141-2.121-2.115.476-3.535.833-5.273.135-.656.788-1.5,1.759-.626h0c.357.446-.129,1.082.345,1.5A12.512,12.512,0,0,1,107.57,194.365Z" transform="translate(-72.305 -131.913)" fill="#b934fd"/>
        <path id="Контур_17863" data-name="Контур 17863" d="M183.884,230.212c-4.347,5.174-9.92,5.992-16.134,4.542a2.166,2.166,0,0,1,2-1.873c2.589-.156,4.794-1.627,7.3-1.983a14.08,14.08,0,0,1,2.043-.228,6.941,6.941,0,0,0,3.616-.653C183.105,229.8,183.618,229.436,183.884,230.212Z" transform="translate(-117.489 -160.905)" fill="#a32efe"/>
        <path id="Контур_17864" data-name="Контур 17864" d="M84.436,157.11c-.6-3.556.863-6.631,2.151-9.791a17.731,17.731,0,0,1,4.725-6.678c.363.443-.036,1.031.279,1.5l.324,3.9c-.473-.2-.066-1.022-.626-1.034-.665,0-.431.812-.773,1.109-1.989,1.72-2.514,4.261-3.64,6.46-.581,1.136-.983,2.364-1.5,3.535C85.185,156.523,85.074,157.074,84.436,157.11Z" transform="translate(-59.041 -98.502)" fill="#c737fe"/>
        <path id="Контур_17865" data-name="Контур 17865" d="M182.883,204.9a2.826,2.826,0,0,1-.3,1.771c-1.447-.944-1.645-.872-2.855.258a10.462,10.462,0,0,1-3.9,2.334,7.1,7.1,0,0,0-4.359.974c-1.2.734-2.762.638-4.159.941a3.61,3.61,0,0,0-1.474.833,4.171,4.171,0,0,1-2.154.674,1.339,1.339,0,0,1-.863-.27c-.063-1.2,1.058-1.363,1.75-1.687,2.358-1.112,4.794-2.058,7.131-3.221.509-.255,1.094.066,1.582-.258a10.736,10.736,0,0,0,6.783-4.24c.947-.6,1.909-1,2.933-.153A6.982,6.982,0,0,1,182.883,204.9Z" transform="translate(-114.038 -141.734)" fill="#b332fe"/>
        <path id="Контур_17866" data-name="Контур 17866" d="M344.916,205.351c-.938,1.585-2.616,2.439-3.763,3.817-.95-.407-.5-1.058-.2-1.567a22.894,22.894,0,0,0,3.05-11.086,14.281,14.281,0,0,0-.671-5.576,3.853,3.853,0,0,1-.234-1.459c.371-.941.6-2,1.8-2.28a24.958,24.958,0,0,1,1.642,10.514,18.493,18.493,0,0,1-1.663,7.044.815.815,0,0,0,.039.593Z" transform="translate(-238.537 -131.112)" fill="#2ab5f9"/>
        <path id="Контур_17867" data-name="Контур 17867" d="M161.027,278.722a9.794,9.794,0,0,1,.342,3c-.926.249-1.519-.375-2.055-.9a48.485,48.485,0,0,1-8.917-11.64c-.629-1.2-1.564-2.445-1.043-4a4.114,4.114,0,0,1,1.118-.069,2.578,2.578,0,0,1,.662.048,62.836,62.836,0,0,1,3.35,5.747C156.12,273.967,158.588,276.331,161.027,278.722Z" transform="translate(-104.499 -185.673)" fill="#1d91f5"/>
        <path id="Контур_17868" data-name="Контур 17868" d="M263.242,206.59a19.677,19.677,0,0,1-2.139,13.546c-1.435,2.5-2.981,5.252-5.977,6.619-1.121.512-2.1,1.471-3.212,2.124a16.654,16.654,0,0,1-6.373,1.855,20.573,20.573,0,0,1-15.206-3.443c-.348-.246-.629-.476-.635-.929,1.681.108,2.843,1.36,4.195,2.1,3.485,1.888,7.191,2,10.885,1.729a19.148,19.148,0,0,0,11.985-5.693,18.474,18.474,0,0,0,5.519-9.372c.542-2.49,1.085-5.052.348-7.634Z" transform="translate(-160.878 -144.693)" fill="#2ec0fa"/>
        <path id="Контур_17869" data-name="Контур 17869" d="M41.206,125.52c-.647,1.019-.039,2.208-.387,3.3-.318-.282-.225-.6-.189-.878.114-.9-.21-1.079-1.07-.935q-6.5,1.088-13,2.058c-.6.087-1.3.282-1.828-.3a12.155,12.155,0,0,1,3-2.783c.923.509,1.858.114,2.774,0,2.894-.333,5.756-.9,8.629-1.369,1.417,0,1.693-1.151,2.124-2.139C41.589,123.51,41.053,124.51,41.206,125.52Z" transform="translate(-17.321 -85.776)" fill="#8e28fe"/>
        <path id="Контур_17870" data-name="Контур 17870" d="M89.81,117.065a12.344,12.344,0,0,0-5.495,5.714c-.6,1.354-.827,3.014-2.31,3.871-.542-1.669-.207-3.392-.3-5.093.809-1.2,1.612-2.4,2.307-3.658,1.121-2.028,3-3.023,4.941-3.9.86-.387,1.525-.165,1.157,1.028A4.764,4.764,0,0,1,89.81,117.065Z" transform="translate(-57.212 -79.725)" fill="#d13afe"/>
        <path id="Контур_17871" data-name="Контур 17871" d="M330.252,194.415a20.769,20.769,0,0,1,.258,13.006,14.183,14.183,0,0,1-2.319,5.417.923.923,0,0,0-.066,1.333,60.6,60.6,0,0,1-6.016,5.093,1.025,1.025,0,0,1,.485-1.387c2.78-1.933,4.195-4.794,5.513-7.763a20.745,20.745,0,0,0,1.429-12.767c-.123-.6.431-1.288-.258-1.771a.249.249,0,0,1,.084-.231,4.278,4.278,0,0,0,.551-.965A.3.3,0,0,1,330.252,194.415Z" transform="translate(-225.509 -136.116)" fill="#2cbaf9"/>
        <path id="Контур_17872" data-name="Контур 17872" d="M203.127,121.649a3.865,3.865,0,0,1-1.5,1.5,23.833,23.833,0,0,1-3.449-5.786,1.3,1.3,0,0,0-.926-.98c-.416-1.2-.83-2.364-1.2-3.568.054-2.523-.27-5.031-.345-7.547-.024-.794-1.022-.929-1.022-1.7a6.78,6.78,0,0,1,3.32.854c.545.866.3,1.852.33,2.768a18.418,18.418,0,0,0,.461,4.728c.854,2.8,1.222,5.866,3.467,8.09C202.708,120.459,203.31,120.864,203.127,121.649Z" transform="translate(-136.358 -72.539)" fill="#d13afe"/>
        <path id="Контур_17873" data-name="Контур 17873" d="M145.159,265.219a19.022,19.022,0,0,0,3.347,7.05,51.536,51.536,0,0,0,6.232,7.544,9.588,9.588,0,0,0,2.433,1.861,6.087,6.087,0,0,1,.285,2.4c-.53.2-.839-.2-1.169-.467a39.261,39.261,0,0,1-10.912-13.2,21.211,21.211,0,0,1-1.9-3.877c-.123-.467-.575-1,.063-1.459C144.08,265.123,144.643,264.9,145.159,265.219Z" transform="translate(-100.3 -185.632)" fill="#1c8cf4"/>
        <path id="Контур_17874" data-name="Контур 17874" d="M140.155,265.226A41.885,41.885,0,0,0,154.237,284.1a8.12,8.12,0,0,1,.33,2.682.2.2,0,0,1-.345,0h0c-.707-1.642-2.322-2.4-3.556-3.491a44.471,44.471,0,0,1-7.332-8.18,49.9,49.9,0,0,1-4.3-7.808c-.3-.686-.746-1.465-.015-2.2C139.412,265.1,139.8,264.968,140.155,265.226Z" transform="translate(-97.091 -185.649)" fill="#1a88f4"/>
        <path id="Контур_17875" data-name="Контур 17875" d="M191.067,265.73h2.4c1.462,1.106,2.6,2.55,3.943,3.778a22.391,22.391,0,0,0,6.157,3.8c.6.267,1.378.414,1.27,1.363-.509.075-1.1-.213-1.5.327-4.332.389-8.674.174-13.012.231-.848,0-1.7.039-2.544.057.584-1.318,1.765-.533,2.661-.755,1.073-.03,2.148-.018,3.221,0,.9-.024,1.828-.018,2.742,0a11.753,11.753,0,0,0,3.185-.126,2.958,2.958,0,0,0-1.543-1.276c-2.7-1.474-4.56-3.835-6.547-6.067A1.225,1.225,0,0,1,191.067,265.73Z" transform="translate(-131.518 -186.113)" fill="#2ab4f9"/>
        <path id="Контур_17876" data-name="Контур 17876" d="M89.862,107.794c.024-1.022-.437-.974-1.222-.665-2.834,1.124-4.512,3.374-5.935,5.9-.3.539-.4,1.282-1.246,1.309a.833.833,0,0,0,0-.15c-.791-4.761,2.3-7.26,5.726-9.36,1.142-.7,2.481-1.828,4.132-1.046A23.277,23.277,0,0,0,89.862,107.794Z" transform="translate(-56.964 -72.5)" fill="#d43bfe"/>
        <path id="Контур_17877" data-name="Контур 17877" d="M320.741,79.279c1.264.983.6,2.178.363,3.326-.336-.665-.641-1-1.291-.2a101.3,101.3,0,0,1-8.251,9.012c-.632.6-.018,1.516-.7,2.022a5.177,5.177,0,0,1-.584-2.4,3.273,3.273,0,0,1,1.013-3.314c2.355-2.607,4.857-5.07,7.155-7.724A1.8,1.8,0,0,1,320.741,79.279Z" transform="translate(-217.22 -55.4)" fill="#27abf8"/>
        <path id="Контур_17878" data-name="Контур 17878" d="M263.626,49.39c-1.5-4.3-3.6-8.335-5.354-12.524a32.029,32.029,0,0,0-1.357-3.3c-.186-.33-.237-.659.129-.92a32.436,32.436,0,0,1,4.458,5.693c-.147.7.485,1.043.7,1.573,1.174,2.942,2.325,5.89,3.649,8.77a.6.6,0,0,1-.117.689Z" transform="translate(-179.839 -22.868)" fill="#9229fe"/>
        <path id="Контур_17879" data-name="Контур 17879" d="M20.447,240.427c.063.222.24.5-.156.563-1.154.2-2.232.8-3.461.617a1.678,1.678,0,0,0-1.288.216c-2.1,1.6-4.572,1.6-7.041,1.57a6.732,6.732,0,0,1-1.022-2.37c.749-.626,1.711-.375,2.559-.548,2.7-.557,5.156-1.777,7.841-2.3C19.246,238.345,19.785,239.459,20.447,240.427Z" transform="translate(-5.239 -166.818)" fill="#de3ffb"/>
        <path id="Контур_17880" data-name="Контур 17880" d="M179.515,225.823a.534.534,0,0,0-.8-.06c-.947,1.1-2.319.923-3.452.9a14.322,14.322,0,0,0-5.908,1.24,6.668,6.668,0,0,1-2.643.734,4.2,4.2,0,0,0-3.335,1.72,4.083,4.083,0,0,1-1.8-.6c-.108-.252-.1-.578.09-.689,1.351-.764,2.367-2.064,4.015-2.37a19.856,19.856,0,0,0,4.258-1.2,13.826,13.826,0,0,1,4.069-.71,6.508,6.508,0,0,0,3.071-.926,3.533,3.533,0,0,1,2.879-.171c.3.078.677.27.5.743A2.313,2.313,0,0,1,179.515,225.823Z" transform="translate(-113.121 -156.516)" fill="#a92ffe"/>
        <path id="Контур_17881" data-name="Контур 17881" d="M312.366,98.515c-.276-1.321.348-2.1,1.27-3.074a96,96,0,0,0,7.062-7.79,2.765,2.765,0,0,1,1.825-1.321c.033.5.06.935.09,1.369a.243.243,0,0,1-.033.258c-.324.488.018,1.085-.258,1.582v3.209c-.261.111-.4-.042-.524-.234-.27-.6-.057-1.264-.3-1.98a6.476,6.476,0,0,0-1.759,1.861c-1.813,2.1-3.787,4.024-5.573,6.133-.53.629-.614,1.459-1.165,2.04A3.9,3.9,0,0,1,312.366,98.515Z" transform="translate(-218.73 -60.465)" fill="#26a7f7"/>
        <path id="Контур_17882" data-name="Контур 17882" d="M129.664,188.1c.09-.449-.147-.983.512-1.261a53.826,53.826,0,0,0,5.219-2.825c1.444-.812,1.669-.65,1.783.938.054.737.192,1.468.3,2.2a6.61,6.61,0,0,1-2.727,1.765,12.36,12.36,0,0,0-3.131,1.7.956.956,0,0,1-1.348.132,5.393,5.393,0,0,1-.608-2.655Z" transform="translate(-90.813 -128.543)" fill="#ee42fe"/>
        <path id="Контур_17883" data-name="Контур 17883" d="M206.058,68.255c-.851-.527-1.8-.132-2.7-.261-1.381-2.2-2.139-4.7-3.4-6.966a.9.9,0,0,1,.108-1.115c.9-.132,1.837.276,2.682-.276l5.411-.048c-.2.986-1.022.6-1.609.731-.788,0-1.579-.057-2.526.027a28.412,28.412,0,0,0,2.747,6.592c.65,1.058,1.8.548,2.741.644.83,0,1.657-.042,2.487.018.407.1.914.06.941.683Z" transform="translate(-139.948 -41.736)" fill="#c236fe"/>
        <path id="Контур_17884" data-name="Контур 17884" d="M215.4,122.7a3.056,3.056,0,0,1-.914,1.744,9.606,9.606,0,0,1-2.906-4.545,26.562,26.562,0,0,1-1.273-11.29,4.006,4.006,0,0,1,2.1,1.528,2.8,2.8,0,0,1,.431,1.7c.054,3.338,1.366,6.364,2.343,9.474C215.323,121.766,215.7,122.18,215.4,122.7Z" transform="translate(-147.179 -76.069)" fill="#db3dfe"/>
        <path id="Контур_17885" data-name="Контур 17885" d="M319.338,78.724c-1.417-.375-1.885.872-2.583,1.6-2.247,2.352-4.365,4.83-6.642,7.152a3.449,3.449,0,0,0-1.243,3,11.7,11.7,0,0,1-.6-3.913,1.453,1.453,0,0,1-.1-.872q3.3-3.317,6.424-6.8c.524-.581,1.267-.075,1.8-.491C317.388,78.385,318.415,78.056,319.338,78.724Z" transform="translate(-215.818 -54.845)" fill="#29b0f8"/>
        <path id="Контур_17886" data-name="Контур 17886" d="M16.285,233.694c-1.237,1.049-2.891,1.127-4.317,1.633A13.739,13.739,0,0,1,5.676,236.5a6.088,6.088,0,0,1-.776-2.415c1.372-.674,2.765-1.315,4.117-2.031a2.46,2.46,0,0,1,1.222-.321c.189.06-.027-.072.144.024a6.916,6.916,0,0,0,5.348.9C16.169,232.87,16.525,233.122,16.285,233.694Z" transform="translate(-3.432 -162.293)" fill="#d93dfb"/>
        <path id="Контур_17887" data-name="Контур 17887" d="M354.173,200.588c-.932-1.016.135-1.882.378-2.673,1.246-4.03.98-8.051.339-12.1a.81.81,0,0,0-.111-.276,3.575,3.575,0,0,1-.716-2.972.515.515,0,0,1-.171-.551,1.317,1.317,0,0,1,.195-.369c.509-.467.836-1.174,1.645-1.243.5.389.186.809.054,1.225a1.873,1.873,0,0,0,.03,1.45,26.341,26.341,0,0,1,.9,14.451C356.153,198.784,355.035,199.578,354.173,200.588Z" transform="translate(-247.794 -126.35)" fill="#29b1f8"/>
        <path id="Контур_17888" data-name="Контур 17888" d="M366.291,184.182a10.745,10.745,0,0,1-1.894,2.664c-1.1.285-.836-.572-.8-1.061.132-1.642-.084-3.269-.1-4.9-.045-3.122-1.252-5.9-2.175-8.77a3.084,3.084,0,0,1,2.049-2.7c.782,3.485,2.148,6.813,2.759,10.346C366.384,181.222,365.661,182.729,366.291,184.182Z" transform="translate(-253.063 -118.66)" fill="#26a8f7"/>
        <path id="Контур_17889" data-name="Контур 17889" d="M206.977,107.1c.578,1.231.3,2.544.273,3.808-.06,2.616.974,4.992,1.426,7.49.336,1.858,1.983,2.855,2.481,4.539l-.545.734c-.626-.758-1.234-1.534-1.891-2.268a10.856,10.856,0,0,1-1.633-3.41,27.517,27.517,0,0,1-1.7-9.357,18.618,18.618,0,0,0,.117-2.181A2.478,2.478,0,0,1,206.977,107.1Z" transform="translate(-143.845 -74.563)" fill="#d63cfe"/>
        <path id="Контур_17890" data-name="Контур 17890" d="M165.592,278.677c-1.642-.2-2.169-1.8-3.191-2.718a21.178,21.178,0,0,1-4.225-6.028,29.611,29.611,0,0,1-2.457-4.716c.6-.33,1.228-.084,1.84-.159.5.135.656.566.836.974a22.105,22.105,0,0,0,3.94,6.469c.956,1.019,1.483,2.376,2.616,3.248.144.162.21.375.357.536A6.747,6.747,0,0,1,165.592,278.677Z" transform="translate(-109.064 -185.629)" fill="#2095f5"/>
        <path id="Контур_17891" data-name="Контур 17891" d="M324.7,106.533l.327.3.656,3.3a1.881,1.881,0,0,0-2.2,1,14.052,14.052,0,0,1-3.5,3.811c-1.2.851-1.663,2.337-2.768,3.278a5.313,5.313,0,0,1-.92-2.034,1.4,1.4,0,0,1,.345-1.621c2.214-2.523,4.638-4.851,6.825-7.4C323.766,106.794,324.1,106.342,324.7,106.533Z" transform="translate(-221.435 -74.583)" fill="#229ef6"/>
        <path id="Контур_17892" data-name="Контур 17892" d="M232.59,28.69c.509,1.711,1.93,3,2.4,4.638.563,1.942,1.552,3.673,2.217,5.552.818,2.316,1.965,4.518,3,6.75a5.869,5.869,0,0,0,.8,1.043h-1.2c-1.115-.066-1.636-.707-2.115-1.7-1.025-2.115-1.594-4.425-2.777-6.451a18.782,18.782,0,0,1-2.064-7.421A7.117,7.117,0,0,1,232.59,28.69Z" transform="translate(-162.902 -20.095)" fill="#aa30fe"/>
        <path id="Контур_17893" data-name="Контур 17893" d="M338.721,151.683l-2.415-2.118c-.237-.533.18-.821.446-1.16,1.63-2.079,3.625-3.826,5.363-5.8.3-.33.6-.719,1.127-.339a6.591,6.591,0,0,1,1.5,2.1,46.246,46.246,0,0,1-4.195,4.827A8.314,8.314,0,0,0,338.721,151.683Z" transform="translate(-235.494 -99.529)" fill="#1a86f4"/>
        <path id="Контур_17894" data-name="Контур 17894" d="M385.748,85.755a4.2,4.2,0,0,1-.258-2.115c.878.21.95,1.348,1.819,1.564a10.085,10.085,0,0,1,1.025.941c.315.333.638.653.965.974.384.372.65.836,1,1.237,1.438,1.549,2.768,3.191,4.138,4.794a8.26,8.26,0,0,1,1.24,2.472,3.059,3.059,0,0,1-.3,1.5c-.237.749-.707.9-1.091.21-1.171-2.1-3-3.709-4.326-5.693a8.451,8.451,0,0,0-2.625-2.8C386.083,88.143,385.984,86.936,385.748,85.755Z" transform="translate(-269.964 -58.581)" fill="#126ff1"/>
        <path id="Контур_17895" data-name="Контур 17895" d="M386.322,107.53a49.528,49.528,0,0,0,.3-8.89c.983.255.635,1.091.758,1.72-.039.818,0,1.639-.021,2.457a4.356,4.356,0,0,0,1.2,3.916c1.7,1.819,2.658,4.144,3.9,6.268.449.764.923.986,1.7.62a14.392,14.392,0,0,1-1.54,3.9c-.875.339-.956-.425-1.216-.9a56.411,56.411,0,0,0-2.879-5.393,14.668,14.668,0,0,0-1.717-2.247C386.409,108.584,386.064,108.153,386.322,107.53Z" transform="translate(-270.511 -69.086)" fill="#1981f3"/>
        <path id="Контур_17896" data-name="Контур 17896" d="M3.71,177.8a7.008,7.008,0,0,1,.614-2.67,36.463,36.463,0,0,0,9.959-1.471c.381,1.345-.282,2.415-.914,3.5a3.006,3.006,0,0,1-1.8.569c-2.04.324-4.072.722-6.121.995C4.723,178.819,3.812,179.017,3.71,177.8Z" transform="translate(-2.598 -121.629)" fill="#aa30fe"/>
        <path id="Контур_17897" data-name="Контур 17897" d="M220.531,126.273c-1.5-2.7-1.954-5.732-2.864-8.614a14.378,14.378,0,0,1-.135-3.949c3.257,2.4,3.964,5.848,3.763,9.588A5.186,5.186,0,0,1,220.531,126.273Z" transform="translate(-152.306 -79.641)" fill="#e13ffe"/>
        <path id="Контур_17898" data-name="Контур 17898" d="M276.264,62.732c-.815-1.858-1.585-3.736-2.463-5.564-.776-1.612-.872-3.488-1.983-4.965-.054-.072.138-.333.216-.5a109.134,109.134,0,0,1,7.26,9.642c.3.449.947.941.069,1.471Z" transform="translate(-190.37 -36.21)" fill="#8e29fe"/>
        <path id="Контур_17899" data-name="Контур 17899" d="M370.1,182.039c-1.33-.506-.731-1.693-.6-2.421a5.62,5.62,0,0,0-.156-2.9c-.845-2.457-.755-5.24-2.412-7.392-.626-.815.7-1.315.09-1.992-.129-.6.195-.869.728-.977a15.107,15.107,0,0,1,2.1,4.195,39.12,39.12,0,0,1,2,8.186A14.059,14.059,0,0,1,370.1,182.039Z" transform="translate(-256.875 -116.516)" fill="#24a2f7"/>
        <path id="Контур_17900" data-name="Контур 17900" d="M319.67,125.105a7.886,7.886,0,0,1,2.93-3.9,13.818,13.818,0,0,0,2.78-3.035,15.1,15.1,0,0,1,1.136-1.348c.719-.749,1.165-.6,1.621.189.3.8.578,1.6.866,2.4-.839-.366-1.378,0-1.978.6-2.136,2.241-3.865,4.887-6.49,6.648a4.018,4.018,0,0,1-.866-1.555Z" transform="translate(-223.892 -81.482)" fill="#219af6"/>
        <path id="Контур_17901" data-name="Контур 17901" d="M323.582,100.736c-1.986,2.079-4.012,4.126-5.941,6.259a15.645,15.645,0,0,1-1.6,1.741,1.831,1.831,0,0,0-.866,1.639,3.05,3.05,0,0,1-.6-1.516,3.384,3.384,0,0,1,1.094-2.5c2.007-2.436,4.4-4.53,6.292-7.077.339-.458.758-1.225,1.312-1.046.638.21.225,1.049.3,1.606A6.336,6.336,0,0,1,323.582,100.736Z" transform="translate(-220.32 -68.786)" fill="#24a3f7"/>
        <path id="Контур_17902" data-name="Контур 17902" d="M177.746,220.819a2.718,2.718,0,0,0-3.431-.057,6.078,6.078,0,0,1-2.637.86c-1.645.282-3.311.1-4.938.986a8.59,8.59,0,0,1-3.434.845,2.122,2.122,0,0,0-2.01.923c-.512.809-2.034.584-2.433,1.762a2.064,2.064,0,0,1-1.234-.509c.491-1.076,1.588-1.465,2.424-2.151a5.52,5.52,0,0,0,2.1-.6c.413-.279,1-.324,1.2-.9a24.615,24.615,0,0,1,3.9-.722c.926-.126.977-1.154,1.921-1.115,1.052.039,2.118-.315,3.176.042a6.816,6.816,0,0,0,2.978-1.282,2.843,2.843,0,0,1,2.4-.533c.65.123.98.467.623,1.157C177.923,219.864,178.247,220.526,177.746,220.819Z" transform="translate(-110.402 -152.891)" fill="#ae30fe"/>
        <path id="Контур_17903" data-name="Контур 17903" d="M375.3,150.62l1.5-2.04c1.429,1.064,1.936,2.721,2.61,4.234a22.954,22.954,0,0,1,2.007,5.093c.072.386.345.428.578.578a13.251,13.251,0,0,1-1.639,2.972c-1.079.3-1.088-.641-1.225-1.2-.354-1.45-.9-2.828-1.357-4.237a15.21,15.21,0,0,0-2.577-4.965.47.47,0,0,1,.1-.437Z" transform="translate(-262.767 -104.064)" fill="#1f94f5"/>
        <path id="Контур_17904" data-name="Контур 17904" d="M173.374,276.719l-.3-.3c-.869-3.428-3.856-5.579-5.255-8.689-.3-.671-.851-1.261-.428-2.07h2.4c1.516,1.672,2.352,3.8,3.742,5.561.56.707,1.2,1.327,1.8,2,.419.464.986.9.737,1.666-.881.186-1.852-.3-2.673.342C173.377,275.73,173.377,276.224,173.374,276.719Z" transform="translate(-117.13 -186.064)" fill="#229ef6"/>
        <path id="Контур_17905" data-name="Контур 17905" d="M344.284,156.946a1.228,1.228,0,0,1,.264-1.375c2.058-1.855,3.538-4.264,5.765-5.95l2.07,1.8c-1.166,1.882-3.26,2.9-4.44,4.794a13.742,13.742,0,0,1-1.166,1.546c-.351.41-.71.869-1.372.6C345.024,157.883,344.655,157.416,344.284,156.946Z" transform="translate(-241.057 -104.792)" fill="#1880f3"/>
        <path id="Контур_17906" data-name="Контур 17906" d="M155.626,106.285l.3-.3a10.711,10.711,0,0,1,3.751,1.366c1.9,1.2,2.921.659,3.3-1.537.108-.638.159-1.285.216-1.93.033-.36.093-.71.572-.725,1.915.033,2.055.174,1.947,2.055-.057.995-.033,1.986-.039,2.981-.018,2.49-.069,2.547-2.535,2.8a1.454,1.454,0,0,1-1.285-.144c-1.669-1.348-3.67-2.124-5.459-3.26C155.938,107.307,155.468,106.962,155.626,106.285Z" transform="translate(-108.976 -72.252)" fill="#c036fe"/>
        <path id="Контур_17907" data-name="Контур 17907" d="M46.044,125.676c-.407,1.079-1.468.629-2.169.776-2.631.557-5.306.9-7.979,1.243-.381.048-1.438.665-1.255-.659a13.7,13.7,0,0,1,5.2-2.786,5.128,5.128,0,0,1,5.162.977A2.625,2.625,0,0,0,46.044,125.676Z" transform="translate(-24.247 -86.814)" fill="#8b28fe"/>
        <path id="Контур_17908" data-name="Контур 17908" d="M373.089,156.63a4.494,4.494,0,0,1,1.96,2.532c.719,2.247,1.873,4.35,2.229,6.717.081.539.168,1.1.857,1.228a9.363,9.363,0,0,1-1.438,2.7c-1.055.048-.986-.857-1.118-1.45a36.279,36.279,0,0,0-2.5-7.82c-.357-.752-1.112-1.324-1.079-2.259a1.565,1.565,0,0,1,.036-.425C372.295,157.37,372.5,156.837,373.089,156.63Z" transform="translate(-260.538 -109.702)" fill="#219af6"/>
        <path id="Контур_17909" data-name="Контур 17909" d="M397.788,80.052a27.88,27.88,0,0,1-.3,9.4c-.848.174-1.1-.53-1.441-1.028a43.193,43.193,0,0,0-7.7-8.437c-.4-.345-.929-.635-.788-1.315,1.24-.773,2.586-.336,3.9-.336a1.368,1.368,0,0,0,.324,1.735,52.382,52.382,0,0,1,5.42,6.028,7.653,7.653,0,0,0,.12-2.538C397.422,82.38,396.928,81.124,397.788,80.052Z" transform="translate(-271.421 -54.776)" fill="#0f67f0"/>
        <path id="Контур_17910" data-name="Контур 17910" d="M339.337,138.011c-1.007.1-1.16,1.118-1.762,1.657a43.183,43.183,0,0,0-5.174,5.642,6.172,6.172,0,0,1-1.741-1.615,14.662,14.662,0,0,1,2.6-3.473,49.576,49.576,0,0,1,3.517-3.6c.369-.351.752-.854,1.393-.44A6.454,6.454,0,0,1,339.337,138.011Z" transform="translate(-231.589 -95.274)" fill="#1c8cf4"/>
        <path id="Контур_17911" data-name="Контур 17911" d="M334.968,132.072c-2.133,1.174-3.514,3.149-5.126,4.866a14.88,14.88,0,0,1-2.4,2.631l-1.216-1.453c-.4-.71.117-1.177.536-1.54,2-1.735,3.4-4.015,5.336-5.8.65-.6,1.273-.971,2.046-.222A3.865,3.865,0,0,1,334.968,132.072Z" transform="translate(-228.385 -91.145)" fill="#1e90f5"/>
        <path id="Контур_17912" data-name="Контур 17912" d="M16.236,148.257c.159.845.788.623,1.291.515a63.539,63.539,0,0,1,11.619-1.1,8.359,8.359,0,0,1-3.9,2.472c-2.906-.042-5.711.686-8.56,1.067-.7.093-1.588.545-1.971-.572a7.739,7.739,0,0,1,1.516-2.379Z" transform="translate(-10.31 -103.426)" fill="#962afe"/>
        <path id="Контур_17913" data-name="Контур 17913" d="M395.678,123.819l-.851,1.058a9.55,9.55,0,0,1-2.079-3.08,27.178,27.178,0,0,0-4.006-5.872c-.644-.71-.177-1.723-.246-2.595.731-.4,1.073.234,1.5.6,1.974,1.624,2.8,4.078,4.323,6.022.6.755.815,1.867,1.974,2.1A4.006,4.006,0,0,1,395.678,123.819Z" transform="translate(-272.027 -79.285)" fill="#167cf3"/>
        <path id="Контур_17914" data-name="Контур 17914" d="M396.557,115.966c-.363.231-.683.857-1.094,0-.923-1.927-2.433-3.473-3.4-5.393a6.942,6.942,0,0,0-3.3-3.3v-2.7c1.106-.2,1.6.656,2.142,1.318a46.793,46.793,0,0,1,4.195,5.609,6.466,6.466,0,0,0,2.034,2.352A3.951,3.951,0,0,1,396.557,115.966Z" transform="translate(-272.288 -73.226)" fill="#1577f2"/>
        <path id="Контур_17915" data-name="Контур 17915" d="M15.651,168.981a2.9,2.9,0,0,1-1.7.965c-2.5.476-5.028.65-7.526,1.058-.461.075-.635-.144-.686-.545a2.851,2.851,0,0,1,.6-1.8,1.452,1.452,0,0,1,.884-.512,59.36,59.36,0,0,0,7.209-1.082,2.044,2.044,0,0,1,1.84.3C16.5,168.082,16.529,168.705,15.651,168.981Z" transform="translate(-4.011 -116.956)" fill="#a32efe"/>
        <path id="Контур_17916" data-name="Контур 17916" d="M261.707,236.661c.455,2.058.177,2.43-1.828,2.427-1.633,0-3.269-.057-4.9.018-1.124.054-1.7-.333-1.7-1.474a1.546,1.546,0,0,1,.06-1.381c2.511-.689,5.051-.354,7.586-.21C261.287,236.062,261.509,236.371,261.707,236.661Z" transform="translate(-177.296 -165.173)" fill="#0242ec"/>
        <path id="Контур_17917" data-name="Контур 17917" d="M258.39,113.241a4.366,4.366,0,0,1,1.5-2.1,77.428,77.428,0,0,1,8.626-.069c.455,0,1.037.042,1.067.749a2.97,2.97,0,0,1-.3,1.774c-.18.084.069.036-.123.078-3.377.734-6.771.44-10.163.162A.818.818,0,0,1,258.39,113.241Z" transform="translate(-180.972 -77.734)" fill="#39ddfd"/>
        <path id="Контур_17918" data-name="Контур 17918" d="M386.1,79.74c1.711,1.819,3.568,3.506,5.33,5.261s2.735,3.97,4.6,5.519l-.369,2.37a69.012,69.012,0,0,0-5.675-7.191,1.794,1.794,0,0,0-.9-1.2,1.885,1.885,0,0,1-.9-.9,2.4,2.4,0,0,0-.9-.9c-1.115-.084-1.375-1.034-1.813-1.8C385.377,80.351,385.428,79.881,386.1,79.74Z" transform="translate(-269.956 -55.849)" fill="#106bf1"/>
        <path id="Контур_17919" data-name="Контур 17919" d="M395.481,104.166c-.623.354-.881-.1-1.178-.515-1.669-2.334-3.194-4.767-5.093-6.945a6.228,6.228,0,0,0-2.115-1.819c-.135-.6.24-1.288-.342-1.8a7.283,7.283,0,0,1-.339-2.379c.3,2.1,2.4,2.7,3.374,4.15,1.645,2.427,3.937,4.353,5.255,7,.282.566.515.839,1,.216C396.26,102.88,395.347,103.381,395.481,104.166Z" transform="translate(-270.637 -63.532)" fill="#1373f2"/>
        <path id="Контур_17920" data-name="Контур 17920" d="M17.694,162.534a8.94,8.94,0,0,0-4.048.393,45.741,45.741,0,0,1-5.9.788,6.663,6.663,0,0,1,1.163-2.762c2.652-.252,5.267-.791,7.928-.962.686-.045,1.381-.261,1.983.27C19.249,161.413,18.722,162.1,17.694,162.534Z" transform="translate(-5.428 -111.998)" fill="#9e2dfe"/>
        <path id="Контур_17921" data-name="Контур 17921" d="M273.065,106.487c-.369-.485-.9-.327-1.384-.33q-3.3-.021-6.592,0a3.137,3.137,0,0,1-1.729-.351c2.223-2.75,6.22-2.7,8.788-2.1C273.646,104.045,273.487,105.315,273.065,106.487Z" transform="translate(-184.453 -72.403)" fill="#3ce2fe"/>
        <path id="Контур_17922" data-name="Контур 17922" d="M331.687,126.68a1.257,1.257,0,0,0-1.516.171c-2.121,2.3-4.216,4.632-6.31,6.963-.084.093-.063.285-.093.428a4,4,0,0,1-1.2-1.774c0-.944.917-1.124,1.438-1.585,1.87-1.648,3.17-3.8,4.959-5.51.659-.632,1.285-1.273,2.07-.168A3.574,3.574,0,0,1,331.687,126.68Z" transform="translate(-225.923 -87.272)" fill="#1f95f5"/>
        <path id="Контур_17923" data-name="Контур 17923" d="M389.655,143.688a7.939,7.939,0,0,1-1.175,2.418c-.812.15-1.019-.485-1.234-1.016a53.888,53.888,0,0,0-3.745-7.472,2.205,2.205,0,0,1-.24-1.864,6.954,6.954,0,0,1,.6-2.334A67.23,67.23,0,0,1,389.655,143.688Z" transform="translate(-268.355 -93.446)" fill="#1c8bf4"/>
        <path id="Контур_17924" data-name="Контур 17924" d="M356.438,155.776c-.252.434-.369.971-.9,1.2-1.732,2.544-3.44,5.093-5.393,7.49h0c-.515.392-.554,1.39-1.525,1.2a7.19,7.19,0,0,0-.4-3.248c1.408-.6,1.9-2.061,2.822-3.11a28.491,28.491,0,0,1,4.156-3.817l1.2-.078A2.069,2.069,0,0,1,356.438,155.776Z" transform="translate(-243.888 -108.847)" fill="#167bf2"/>
        <path id="Контур_17925" data-name="Контур 17925" d="M172.98,167.878c.3-.434.2-.761-.156-1.157a11.3,11.3,0,0,1-3.164-5.459c.39-.944,1.264-.794,2.028-.9a1.87,1.87,0,0,1,1.864,1.252c.581,1.531,1.234,3.032,1.828,4.557a.959.959,0,0,1,0,.866A6.591,6.591,0,0,1,172.98,167.878Z" transform="translate(-118.827 -112.315)" fill="#a62efe"/>
        <path id="Контур_17926" data-name="Контур 17926" d="M370.54,161.62c.692,1.42,1.372,2.846,2.082,4.258,1.01,2,1.151,4.249,1.777,6.361.132.44.174.869.653,1.07a6.99,6.99,0,0,1-1.172,2.1,1.177,1.177,0,0,1-.563-.848c-.62-3.682-1.432-7.3-3.452-10.517-.186-.3.246-.713-.219-.932C369.633,162.432,369.776,161.842,370.54,161.62Z" transform="translate(-258.895 -113.197)" fill="#239ef6"/>
        <path id="Контур_17927" data-name="Контур 17927" d="M2.7,185.47a.944.944,0,0,0,1.064.623c2.84-.479,5.693-.986,8.515-1.483.536.554.267,1.124.036,1.693a1.878,1.878,0,0,1-1.977,1.444c-2.235.048-4.431.515-6.66.635a1.875,1.875,0,0,1-1.3-.141,1.261,1.261,0,0,1,0-1.016A3.155,3.155,0,0,1,2.7,185.47Z" transform="translate(-1.592 -129.298)" fill="#b031fe"/>
        <path id="Контур_17928" data-name="Контур 17928" d="M15.83,263.039c1.112-.168,2.238-.108,3.356-.213,1.741-.165,3.368,1.72,3.509,3.712.039.542,0,1.091,0,1.636A11.82,11.82,0,0,1,15.83,263.039Z" transform="translate(-11.087 -184.073)" fill="#e441fb"/>
        <path id="Контур_17929" data-name="Контур 17929" d="M316.189,78.62c-1.759.551-2.7,2.07-3.9,3.3-1.318,1.378-2.442,2.963-4.174,3.9-1.013-3.464.977-6.472,5.064-7.191Z" transform="translate(-215.62 -55.065)" fill="#2ab5f9"/>
        <path id="Контур_17930" data-name="Контур 17930" d="M256.891,118.51a3.416,3.416,0,0,0,1.864.342H267.8a3.388,3.388,0,0,1-.617,2.115c-3.191.093-6.385.219-9.588.123a1.628,1.628,0,0,1-1.342-.485A5.711,5.711,0,0,1,256.891,118.51Z" transform="translate(-179.473 -83.003)" fill="#37d7fc"/>
        <path id="Контур_17931" data-name="Контур 17931" d="M226.844,67.864h-2.7a2.664,2.664,0,0,1-.806-1.378,28.087,28.087,0,0,0-2-4.923c-.285-.551-.677-1.139-.174-1.8.6-.1,1.285.255,1.8-.318l1.8-.048a2.766,2.766,0,0,0,.168,3.056c.692,1.243,1.2,2.6,1.873,3.874C227.033,66.816,227.3,67.337,226.844,67.864Z" transform="translate(-154.73 -41.603)" fill="#bb34fe"/>
        <path id="Контур_17932" data-name="Контур 17932" d="M166.69,327.366c.066-.39.273-.806.632-.363,1.5,1.852,3.9,2.592,5.42,4.422.372.452.995.4,1.444.7a3.813,3.813,0,0,1,.321,3.05c-.662.875-1.258.53-1.8-.135Q169.692,331.213,166.69,327.366Z" transform="translate(-116.747 -228.895)" fill="#187df3"/>
        <path id="Контур_17933" data-name="Контур 17933" d="M261.742,231.11c-1.528-.617-3.125-.2-4.686-.3-1.231-.066-2.469,0-3.7,0-.425-2.3-.108-2.78,2.136-2.831a27.42,27.42,0,0,1,5.453.126,2.122,2.122,0,0,1,.488.3A7.286,7.286,0,0,1,261.742,231.11Z" transform="translate(-177.331 -159.622)" fill="#0347ed"/>
        <path id="Контур_17934" data-name="Контур 17934" d="M391.326,140.088a.971.971,0,0,1-.965-.761,26.426,26.426,0,0,0-4.246-7.718,3.474,3.474,0,0,1-.273-3.329c.464,1.459,1.849,2.232,2.595,3.538,1.058,1.852,1.983,3.751,2.906,5.666.171.357.3.755.8.776A4.234,4.234,0,0,1,391.326,140.088Z" transform="translate(-270.026 -89.846)" fill="#1a86f4"/>
        <path id="Контур_17935" data-name="Контур 17935" d="M21.583,156.675c-1.915-.267-3.781.255-5.672.363-1.028.06-2.04.366-3.065.515-.431.063-.9.117-1.216-.348a3.6,3.6,0,0,1,.932-1.744c1.216.788,2.4,0,3.559-.153,2.448-.3,4.851-.974,7.353-.674A2.347,2.347,0,0,1,21.583,156.675Z" transform="translate(-8.145 -108.251)" fill="#992bfe"/>
        <path id="Контур_17936" data-name="Контур 17936" d="M381.465,141.21c-.06,1.375,1.052,2.205,1.57,3.3a67.529,67.529,0,0,1,2.93,6.322,1.2,1.2,0,0,0,.719.719,4.793,4.793,0,0,1-.9,1.774c-.707.3-.833-.234-.986-.71a46.468,46.468,0,0,0-4.21-9.207C380.887,142.684,381.177,141.947,381.465,141.21Z" transform="translate(-266.559 -98.902)" fill="#1d8ff5"/>
        <path id="Контур_17937" data-name="Контур 17937" d="M254.559,125.53c3.131,0,6.262,0,9.39.039.521,0,1.112-.2,1.531.324-.207.581-.644.65-1.2.557-1.735-.3-2.436.21-2.741,1.956-.042.24-.048.485-.069.728-.375.345.057,1.157-.734,1.261-.6-.473-.452-1.106-.363-1.723.234-.686-.15-.881-.731-.9-1.27-.036-2.544,0-3.817-.015-.866,0-1.04.563-1.145,1.234a.7.7,0,0,1-.467.518c-.725-.485-.231-1.1-.183-1.669Z" transform="translate(-177.773 -87.92)" fill="#35d1fc"/>
        <path id="Контур_17938" data-name="Контур 17938" d="M404.372,84.1c-.108.851.491,2.1-.3,2.457-.7.324-1.073-.974-1.546-1.543-1.588-1.909-3.395-3.6-5.108-5.372-1.183-1.222.671-.71.7-1.237a12.374,12.374,0,0,1,3,0c.165.758-.815.4-.926,1.049C401.951,80.618,403.063,82.44,404.372,84.1Z" transform="translate(-278.069 -54.852)" fill="#0e63f0"/>
        <path id="Контур_17939" data-name="Контур 17939" d="M233.19,64.458a3.721,3.721,0,0,0-.9-2.313c-.884-1.27-1.076-2.84-1.971-4.1-.647-.914-.351-1.678.767-2.034a1.549,1.549,0,0,0,.584-1.435c.324-.123.557.111.509.327-.428,2.019,1.2,3.386,1.63,5.132.285,1.127,1.073,2.124,1.375,3.278.192.746,1.285.6,1.3,1.453h-2.4C233.864,64.4,233.517,64.47,233.19,64.458Z" transform="translate(-161.076 -38.197)" fill="#b532fe"/>
        <path id="Контур_17940" data-name="Контур 17940" d="M238.936,52.331a2.743,2.743,0,0,1-1.915-2.1,43.1,43.1,0,0,0-2.34-5.207c-.315-.674-.944-1.276-.279-2.1.162-.207.021-.581-.279-.764a30.03,30.03,0,0,1-.644-5.375c.7.515.422,1.327.41,1.933-.045,2.418,1.621,4.138,2.457,6.169a56.262,56.262,0,0,0,2.376,5.693,3.4,3.4,0,0,0,1.714,1.774Z" transform="translate(-163.526 -25.768)" fill="#ae31fe"/>
        <path id="Контур_17941" data-name="Контур 17941" d="M360.183,177.62a16.635,16.635,0,0,1,2.3,6.891c.24,2.466.863,4.989.138,7.49-.1.366.195.518.527.56l-1.222,1.5a.743.743,0,0,1-.794-.986c.914-4.728-.282-9.207-1.561-13.68.078-.3.473-.6,0-.9C359.4,177.968,359.859,177.836,360.183,177.62Z" transform="translate(-251.812 -124.403)" fill="#27acf8"/>
        <path id="Контур_17942" data-name="Контур 17942" d="M141.883,200.54l.467.045q.264,1.031.527,2.052c-2.846.836-4.74,3.212-7.3,4.515a3.487,3.487,0,0,1-.9-1.816c-.138-.743.467-1.016.881-1.42a12.054,12.054,0,0,1,5.657-3.122.5.5,0,0,0,.662-.255Z" transform="translate(-94.316 -140.455)" fill="#e43ffe"/>
        <path id="Контур_17943" data-name="Контур 17943" d="M165.834,218.65q-5.052,2.31-10.094,4.629c-.162.075-.255.3-.378.446a4.746,4.746,0,0,1-2.112,1.837l-.878-.647a.623.623,0,0,1,.093-.929c.9-.773,1.534-1.861,2.7-2.277a23.175,23.175,0,0,0,5.306-2.7,2.143,2.143,0,0,1,1.873-.108Z" transform="translate(-106.603 -153.139)" fill="#b934fe"/>
        <path id="Контур_17944" data-name="Контур 17944" d="M139.475,197.408c-.533.848-1.555.77-2.319,1.043-1.918.7-3.152,2.151-4.56,3.434a6.265,6.265,0,0,1-.926-2.673q3.2-1.63,6.406-3.257c.258-.132.533-.231.8-.345.1.4.2.8.3,1.2C139.391,196.949,139.643,197.075,139.475,197.408Z" transform="translate(-92.22 -137.003)" fill="#ea41fe"/>
        <path id="Контур_17945" data-name="Контур 17945" d="M179.545,110.374a.873.873,0,0,1,.111-.1c.65-.452,1.66.21,2.1-.428.539-.794.153-1.837.2-2.768.045-.743-.027-1.5.021-2.235.129-1.953.144-1.953-1.8-1.918a.476.476,0,0,1-.68-.066,8.542,8.542,0,0,1,4.294,0,3.442,3.442,0,0,1,.494,2.265,42.494,42.494,0,0,0,.033,4.581c0,.656-.09,1.2-.863,1.312a19.959,19.959,0,0,1-3.721-.455A1.149,1.149,0,0,1,179.545,110.374Z" transform="translate(-125.719 -71.849)" fill="#c638fe"/>
        <path id="Контур_17946" data-name="Контур 17946" d="M259.794,201.352a8.09,8.09,0,0,1,.273,2.7c-2.082-.219-4.171-.123-6.256-.159a2.64,2.64,0,0,1-1.447-.3c-.44-.674-.147-1.414-.192-2.127a.782.782,0,0,1,.39-.383C254.983,200.905,257.413,200.471,259.794,201.352Z" transform="translate(-176.579 -140.65)" fill="#0f66f0"/>
        <path id="Контур_17947" data-name="Контур 17947" d="M86.443,258.333c-.449-1.2.342-2.184.6-3.26.467.018.983-.018,1.136-.521.372-1.234,1.522-2.013,1.974-3.053.881-2.037,2.729-2.463,4.32-3.374.491-.282.62,0,.647.422s.024.8.036,1.2a2.591,2.591,0,0,1-.282,1.531c-1.564-.6-2.307-.416-3.326.9a13.588,13.588,0,0,1-2.289,2.481,3.322,3.322,0,0,0-1.576,2.544,1.477,1.477,0,0,1-.638,1.127Z" transform="translate(-60.449 -173.704)" fill="#b934fe"/>
        <path id="Контур_17948" data-name="Контур 17948" d="M163.485,103.5l.68.066c.389,1.441-.186,2.8-.387,4.195a1.154,1.154,0,0,1-1.276.821,4,4,0,0,1-2.4-.653,4.263,4.263,0,0,0-2.667-1.106.9.9,0,0,1-.779-.6c.087-.3.342-.3.6-.33.6.045,1.183.156,1.774.246,2.187.342,2.727-.081,2.957-2.34A2.484,2.484,0,0,1,163.485,103.5Z" transform="translate(-109.722 -72.487)" fill="#ba34fe"/>
        <path id="Контур_17949" data-name="Контур 17949" d="M192.62,111.317c1.312-.56.449-1.8.4-2.4-.135-1.819.279-3.637-.06-5.435a.3.3,0,0,1,.279.036c1.249.36,1.5,1.291,1.516,2.457a31.106,31.106,0,0,0,.4,5.789c.111.542.039.845-.443,1.061A2.466,2.466,0,0,1,192.62,111.317Z" transform="translate(-134.908 -72.466)" fill="#ca39fe"/>
        <path id="Контур_17950" data-name="Контур 17950" d="M93.073,267.07h-2.4a1,1,0,0,1-.018-1.663,38.517,38.517,0,0,0,3.955-4.195,2.857,2.857,0,0,1,2.343-.734c.713-.021.437.6.333,1a1.547,1.547,0,0,1-.255,1.154A13.542,13.542,0,0,0,93.073,267.07Z" transform="translate(-63.192 -182.435)" fill="#af31fe"/>
        <path id="Контур_17951" data-name="Контур 17951" d="M410.036,84.053a1.118,1.118,0,0,1-.977-.6,11.907,11.907,0,0,0-3.6-3.895.809.809,0,0,1-.354-.6c.042-.4.431-.3.71-.321.342-.021.7.03.935-.318,2.625-.213,2.873-.084,3.332,1.723Z" transform="translate(-283.733 -54.802)" fill="#0d5eef"/>
        <path id="Контур_17952" data-name="Контур 17952" d="M259.612,196.611h-7.284c-.375-2.313-.2-2.535,2.031-2.571h2.529c2.541,0,2.529,0,2.936,2.307Z" transform="translate(-176.619 -135.903)" fill="#126ff1"/>
        <path id="Контур_17953" data-name="Контур 17953" d="M358.639,183.61a4.675,4.675,0,0,1,1.39,3.167c.177,1.723.527,3.422.791,5.114a15.873,15.873,0,0,1-.3,5.267.909.909,0,0,0,.464,1.118l-1.2,1.5a1.409,1.409,0,0,1-.243-1.408,23.838,23.838,0,0,0-1.2-13.294C358.177,184.545,358.055,184.008,358.639,183.61Z" transform="translate(-250.882 -128.598)" fill="#28adf8"/>
        <path id="Контур_17954" data-name="Контур 17954" d="M137.73,211.823c.087-.222.117-.578.273-.647,2.145-.947,3.6-2.951,5.786-3.835a1.72,1.72,0,0,1,1.237-.033l2.379,2.067c-.413.431-.83.186-1.243,0a1.489,1.489,0,0,0-2.148.054c-1.687,1.438-3.823,2.244-5.378,3.853a2.867,2.867,0,0,1-.9-1.459Z" transform="translate(-96.464 -145.126)" fill="#dd3efe"/>
        <path id="Контур_17955" data-name="Контур 17955" d="M260.2,158.753c-.6,2.472-.153,4.983-.285,7.472-.449.039-.5-.315-.6-.617a6.412,6.412,0,0,1-.069-1.2c0-.479,0-.956,0-1.432V161.8a3.823,3.823,0,0,0-.252-1.369c-.2-.869-.9-.6-1.459-.635-1.573-.15-3.185.3-4.725-.324-.1-2.124.054-2.3,2.145-2.337.8,0,1.6.06,2.4-.018a4.542,4.542,0,0,1,2.55.677C260.3,158.016,260.1,158.432,260.2,158.753Z" transform="translate(-177.05 -110.03)" fill="#25a5f7"/>
        <path id="Контур_17956" data-name="Контур 17956" d="M187.976,162.523a3.392,3.392,0,0,1-1.5.6,24.607,24.607,0,0,1-2.7-4.228c-.3-.791-.9-1.417-1.261-2.184a3.444,3.444,0,0,1,2.466-1.031,1.175,1.175,0,0,1,1.118,1.013,15.7,15.7,0,0,0,2.079,4.992C188.375,162.026,188.38,162.32,187.976,162.523Z" transform="translate(-127.834 -109.036)" fill="#b533fe"/>
        <path id="Контур_17957" data-name="Контур 17957" d="M144.98,221.355a2.912,2.912,0,0,1-1.18-1.219c.225-.947,1.106-1.052,1.8-1.3a8.727,8.727,0,0,0,2.7-1.8c1.282-1.067,2.613-2.4,4.575-1.414l1.753.6c-1.258.755-2.846.818-3.973,1.834a29.462,29.462,0,0,1-4.045,2.64A3.353,3.353,0,0,1,144.98,221.355Z" transform="translate(-100.715 -150.781)" fill="#c938fe"/>
        <path id="Контур_17958" data-name="Контур 17958" d="M260.1,212.264a3.679,3.679,0,0,1,.24,1.8,1.163,1.163,0,0,1-.791.386c-2.415,0-4.851.452-7.236-.282a2.628,2.628,0,0,1-.021-1.989A14.7,14.7,0,0,1,260.1,212.264Z" transform="translate(-176.568 -148.266)" fill="#0b5aef"/>
        <path id="Контур_17959" data-name="Контур 17959" d="M147.74,223.608c.048-.95,1.028-.656,1.462-.875,2.747-1.372,4.764-4.195,8.186-4.234a3.777,3.777,0,0,1,1.825.3,3.283,3.283,0,0,0-2.469,1.025,9.29,9.29,0,0,1-3.338,1.636,7.261,7.261,0,0,0-4.168,3.353,3.541,3.541,0,0,1-1.5-1.2Z" transform="translate(-103.475 -153.034)" fill="#c136fe"/>
        <path id="Контур_17960" data-name="Контур 17960" d="M259.2,153.654c-.366.183-.18.635-.566,1.025.138-1.183-.461-1.4-1.363-1.333a14.682,14.682,0,0,1-2.667,0c-1.45-.168-2.481.117-2.553,1.822a1.522,1.522,0,0,1,.354.9c.039.479.027.959.021,1.441v1.18a2.885,2.885,0,0,1-.24,1.381.4.4,0,0,1-.4.177v-5.693c.258-.455-.171-.92,0-1.378a2.569,2.569,0,0,1,.144-.41c.282-.533.372-1.2,1.037-1.468a23.386,23.386,0,0,1,3.718-.174,2.152,2.152,0,0,1,2.625,1.8A.7.7,0,0,1,259.2,153.654Z" transform="translate(-176.316 -105.832)" fill="#28aef8"/>
        <path id="Контур_17961" data-name="Контур 17961" d="M178.345,159.044c.3.03.683.081.764.375.6,2.208,2.58,3.673,3.158,5.887a4.776,4.776,0,0,1-2.1.65c-.527-1.648-1.579-3.074-1.912-4.83a1.628,1.628,0,0,0-1.738-1.5A1.157,1.157,0,0,1,178.345,159.044Z" transform="translate(-123.632 -111.232)" fill="#ab30fe"/>
        <path id="Контур_17962" data-name="Контур 17962" d="M260.386,224.928h-5.357c-2.367,0-2.448.087-2.418,2.4,0,.422-.027.845-.042,1.27a5.129,5.129,0,0,1-.3-2.4,6.325,6.325,0,0,1,.054-2.852c1-.626,2.124-.339,3.2-.378,1.139-.042,2.28-.051,3.419,0C260.482,223.058,260.635,223.3,260.386,224.928Z" transform="translate(-176.59 -156.14)" fill="#074eee"/>
        <path id="Контур_17963" data-name="Контур 17963" d="M96.261,258.658c-.09-.252.069-.815-.261-.713-.776.243-1.864-.042-2.3.773a15.619,15.619,0,0,1-3.622,3.913,1.323,1.323,0,0,0-.434,1.621h-.9a6.252,6.252,0,0,1,3.02-4.794c.863-.53,1.177-1.87,2.115-2.55,1.1-.8,1.989-.71,2.7.3A2.438,2.438,0,0,1,96.261,258.658Z" transform="translate(-62.159 -179.56)" fill="#b433fe"/>
        <path id="Контур_17964" data-name="Контур 17964" d="M309.42,216.32a18.864,18.864,0,0,1-2.786,9.848,25.083,25.083,0,0,1-5.908,6.307,2.7,2.7,0,0,1-2.055.7,29.064,29.064,0,0,0,5.177-4.195c3-3.194,4.875-6.945,4.656-11.493a3.026,3.026,0,0,1,.917-1.168Z" transform="translate(-209.184 -151.508)" fill="#31c5fa"/>
        <path id="Контур_17965" data-name="Контур 17965" d="M260.364,222.616c.174-1.16-.267-1.582-1.483-1.528-2.19.1-4.392.03-6.592.03a1.633,1.633,0,0,1-.021-1.5h8.06a10.968,10.968,0,0,1,.336,3Z" transform="translate(-176.565 -153.819)" fill="#0854ee"/>
        <path id="Контур_17966" data-name="Контур 17966" d="M284.38,138.94c2.364-.635,3.374.093,3.446,2.493.015.494.015.989,0,1.48-.12,2.037-.806,2.475-2.765,1.78a20.469,20.469,0,0,0,.18-4.611.794.794,0,0,0-.557-.791.791.791,0,0,1-.3-.351Z" transform="translate(-199.175 -97.159)" fill="#23a0f6"/>
        <path id="Контур_17967" data-name="Контур 17967" d="M259.48,192.8c-.168-1.864-1.4-1.983-2.876-1.816a22.445,22.445,0,0,1-2.541.018c-2.073,0-2.073,0-2.073,2.1h0c-.1.135-.2.135-.3,0v-3.3a1.156,1.156,0,0,1,.575-.575,29.908,29.908,0,0,1,5.72-.123,1.423,1.423,0,0,1,1.219.707A10.562,10.562,0,0,1,259.48,192.8Z" transform="translate(-176.28 -132.391)" fill="#1578f2"/>
        <path id="Контур_17968" data-name="Контур 17968" d="M.788,208.622c-.4-2.7-1.39-5.393-.273-8.132a.947.947,0,0,1,.351.6c.159,1-.174,2,.033,3,.03.3.042.6.048.9.021.348.132.686.15,1.031.051,1.031.6,1.183,1.5,1s1.78-.719,2.747-.282a.974.974,0,0,1,.21.872,4.024,4.024,0,0,1-1.8,2.16,2.469,2.469,0,0,1-.41.171C1.348,210.53,1.2,210.446.788,208.622Z" transform="translate(0 -140.42)" fill="#cc39fd"/>
        <path id="Контур_17969" data-name="Контур 17969" d="M123.655,265.216c.983,2.1,1.977,4.195,2.939,6.322a.671.671,0,0,1-.3.9,58.572,58.572,0,0,1-4.108-5.726c-.357-.542-.464-1.1.24-1.5A1.3,1.3,0,0,1,123.655,265.216Z" transform="translate(-85.382 -185.644)" fill="#197ef3"/>
        <path id="Контур_17970" data-name="Контур 17970" d="M202.894,155.327c-.461.378-.824.9-1.471,1-2.139-1.48-2.667-4-3.9-6.064a.854.854,0,0,1-.09-.422,1.7,1.7,0,0,1,1.405-.968c.545.03.731.428.872.863a8.927,8.927,0,0,0,2.721,4.294,1.162,1.162,0,0,1,.458,1.3Z" transform="translate(-138.282 -104.267)" fill="#c638fe"/>
        <path id="Контур_17971" data-name="Контур 17971" d="M197.229,152.75c1.04.476,1.076,1.6,1.459,2.448a5.936,5.936,0,0,0,2.1,2.924c.357.225.3.584.324.92a4.221,4.221,0,0,1-1.8.914A7.308,7.308,0,0,1,197.229,152.75Z" transform="translate(-137.959 -106.984)" fill="#c236fe"/>
        <path id="Контур_17972" data-name="Контур 17972" d="M259.52,186.13c-1.834-.644-3.73-.162-5.591-.3-.542-.039-1.088,0-1.633,0a1.768,1.768,0,0,1,.063-1.633,12.156,12.156,0,0,1,6.816.135.632.632,0,0,0,.279.584C259.475,185.318,259.5,185.722,259.52,186.13Z" transform="translate(-176.586 -128.715)" fill="#1880f3"/>
        <path id="Контур_17973" data-name="Контур 17973" d="M205.71,152.806c-.3-.848-1.1-1.222-1.624-1.846a9.456,9.456,0,0,1-1.921-3.616c-.114-.416-.189-.764-.7-.791-.054-.464.051-.824.6-.9.3,0,.665-.827.884-.051.641,2.274,2.055,4.1,3.3,6.028.123.186.075.482.1.728C206.2,152.6,206.037,152.818,205.71,152.806Z" transform="translate(-141.098 -101.746)" fill="#cc39fe"/>
        <path id="Контур_17974" data-name="Контур 17974" d="M146.6,132.052a8.347,8.347,0,0,1-1.965-1.983,14.246,14.246,0,0,0-3.9-2.822,2.76,2.76,0,0,1,.923-1.426c2.472.956,3.991,3.068,5.816,4.794A1.216,1.216,0,0,1,146.6,132.052Z" transform="translate(-98.572 -88.123)" fill="#ed43fe"/>
        <path id="Контур_17975" data-name="Контур 17975" d="M140.712,216.378c-.132-.848.563-1.157,1.091-1.39,1.846-.818,3.122-2.478,5.031-3.23.788-.3,1.049-.135,1.36.449a1.111,1.111,0,0,1-.473.728c-2.127,1.438-4.09,3.128-6.475,4.162Z" transform="translate(-98.541 -148.209)" fill="#d73cfe"/>
        <path id="Контур_17976" data-name="Контур 17976" d="M142.53,218.49c.863-1.127,2.529-1.339,3.26-2.223,1.067-1.288,2.67-1.525,3.688-2.667l1.288.255,1.219.6c-1.927-.333-3.245.692-4.461,1.977-1.163,1.225-2.819,1.546-4.255,2.274a2.851,2.851,0,0,0-.36.249Z" transform="translate(-99.826 -149.602)" fill="#d13afe"/>
        <path id="Контур_17977" data-name="Контур 17977" d="M192.714,152.63c.111,1.136.252,2.268.33,3.407.1,1.5,1.091,2.574,1.759,3.8a1.948,1.948,0,0,1-1.216.515c.1-1.031-.848-1.6-1.124-2.526-.3-1.052-1.025-1.989-1.064-3.185a.9.9,0,0,0-.869-.875,1.9,1.9,0,0,1,2.151-1.174Z" transform="translate(-133.444 -106.865)" fill="#bd36fe"/>
        <path id="Контур_17978" data-name="Контур 17978" d="M99.73,272.086c.392-2.31,1.992-3.547,3.967-4.446a13.944,13.944,0,0,1-1.3,4.494Z" transform="translate(-69.849 -187.451)" fill="#ab35fe"/>
        <path id="Контур_17979" data-name="Контур 17979" d="M312.933,78.564c-2.118.5-3.449,2.064-4.722,3.625-.848,1.037-.225,2.379-.342,3.577l-.054.956a26.073,26.073,0,0,1-.24-6.622,1.536,1.536,0,0,1,1.66-1.549C310.467,78.523,311.7,78.558,312.933,78.564Z" transform="translate(-215.357 -55.009)" fill="#2ebaf9"/>
        <path id="Контур_17980" data-name="Контур 17980" d="M146.343,120.548a1.145,1.145,0,0,1,.65-.758,15.352,15.352,0,0,1,4.968,3.428,3.11,3.11,0,0,1,.821,1.393.9.9,0,0,1-.734.782,2.189,2.189,0,0,1-2.064-.971,9.033,9.033,0,0,0-3.062-2.538C146.406,121.63,146.041,121.207,146.343,120.548Z" transform="translate(-102.42 -83.899)" fill="#df3ffe"/>
        <path id="Контур_17981" data-name="Контур 17981" d="M144.6,122.32a32.2,32.2,0,0,0,5.756,4.6c.087.683-.108,1.16-.9,1.2-.144-.027-.336,0-.425-.09-1.7-1.618-3.428-3.215-5.285-4.659a2.268,2.268,0,0,1,.854-1.046Z" transform="translate(-100.68 -85.671)" fill="#e841fe"/>
        <path id="Контур_17982" data-name="Контур 17982" d="M163.381,104.49c.5,1.049.171,2.4-.776,2.658a4.5,4.5,0,0,1-3.955-.563C159.953,105.3,161.751,105.038,163.381,104.49Z" transform="translate(-111.116 -73.184)" fill="#b635fe"/>
        <path id="Контур_17983" data-name="Контур 17983" d="M259.89,210.818h-7.583a1.177,1.177,0,0,1,0-1.2c2.073,0,4.147.021,6.217,0a1.72,1.72,0,0,1,1.633.707Z" transform="translate(-176.597 -146.815)" fill="#0c5ff0"/>
        <path id="Контур_17984" data-name="Контур 17984" d="M212.692,215.843a1.637,1.637,0,0,0-2.7-.372,3.67,3.67,0,0,1-3.3,1.031c.848-.527,1.732-1,2.532-1.6.473-.351,1.079-.518,1.327-1.264.174-.515.878-.752,1.648-.5.6.195,1.18.159,1.1,1A2.411,2.411,0,0,1,212.692,215.843Z" transform="translate(-144.769 -149.209)" fill="#b032fe"/>
        <path id="Контур_17985" data-name="Контур 17985" d="M2.63,227.63c.494,2.067,1.939.9,3.041.9.8-.1,1.636-.276,1.8.9-1.321.758-2.508,1.816-4.162,1.8a11.646,11.646,0,0,1-.677-3.6Z" transform="translate(-1.842 -159.429)" fill="#d23cfc"/>
        <path id="Контур_17986" data-name="Контур 17986" d="M150.755,116.019a1.522,1.522,0,0,1,.821-.749c1.927.9,3.9,1.714,5.189,3.529.33.461.878.647,1.219,1.079-.081.707-.6.788-1.166.842-1.9-.974-3.182-2.843-5.21-3.652C151.171,116.891,150.644,116.687,150.755,116.019Z" transform="translate(-105.576 -80.734)" fill="#ca39fe"/>
        <path id="Контур_17987" data-name="Контур 17987" d="M149.375,117.77c.419.869,1.4.875,2.1,1.258,1.546.851,2.568,2.283,3.985,3.248-.078.632-.491.839-1.067.842a13.028,13.028,0,0,0-4.98-4.015c-.3-.153-.638-.3-.641-.728A1.031,1.031,0,0,1,149.375,117.77Z" transform="translate(-104.196 -82.485)" fill="#d33cfe"/>
        <path id="Контур_17988" data-name="Контур 17988" d="M159.888,118.7a1.147,1.147,0,0,1-1.177-.452c-1.052-1.951-2.951-2.789-4.773-3.742a1.945,1.945,0,0,1-.407-.407l.65-.506c.671,1.375,2.2,1.654,3.329,2.307a26.565,26.565,0,0,0,3.847,2.184l.054.063A.973.973,0,0,1,159.888,118.7Z" transform="translate(-107.53 -79.557)" fill="#c437fe"/>
        <path id="Контур_17989" data-name="Контур 17989" d="M275.94,144.167v-.6c-.38-.446-.249-1-.3-1.513.324-1.07-.075-2.274.62-3.272.093-.44-.225-1.052.512-1.222.138.2.075.527.383.629a1.444,1.444,0,0,1,.285,1.381,15.1,15.1,0,0,0-.135,3.8.728.728,0,0,1-.15.473l-.944,1.222C275.895,144.832,275.967,144.487,275.94,144.167Z" transform="translate(-193.054 -96.345)" fill="#1679f2"/>
        <path id="Контур_17990" data-name="Контур 17990" d="M224,198.045l-.054-2.142c-.758-.467-1.627-.1-2.418-.324.3-.734.584-1.474.9-2.205.15-.345.216-.845.74-.785.389.045.527.443.6.773A8.447,8.447,0,0,1,224,198.045Z" transform="translate(-155.156 -134.883)" fill="#c23bfe"/>
        <path id="Контур_17991" data-name="Контур 17991" d="M280.68,145.379V145.1a.992.992,0,0,1,.324-.276,2.322,2.322,0,0,0,.566-.3,8.986,8.986,0,0,0,.195-2.939c.051-.635-.09-1.3.4-1.84.4,0,.869-.033.875.53.021,1.582,0,3.164-.024,4.746,0,.264-.3.351-.563.4Z" transform="translate(-196.584 -97.878)" fill="#2096f5"/>
        <path id="Контур_17992" data-name="Контур 17992" d="M239.6,140.181a1.022,1.022,0,0,1,.9-.581c.731.9.351,1.974.407,2.969a18.368,18.368,0,0,1-.027,2.783l-.6.279c-1,.255-1.043-.509-1.082-1.112A10.846,10.846,0,0,1,239.6,140.181Z" transform="translate(-167.497 -97.774)" fill="#27a7f8"/>
        <path id="Контур_17993" data-name="Контур 17993" d="M249.5,137.005l.674-.575a2.48,2.48,0,0,1,.566,2.451c-.378,1.27-.042,2.658-.6,3.9h0c-.243.174-.036.773-.6.641v-.024A10.837,10.837,0,0,1,249.5,137.005Z" transform="translate(-174.425 -95.554)" fill="#136ff1"/>
        <path id="Контур_17994" data-name="Контур 17994" d="M238.461,141.54v4.195c0,.53-.135,1.151.665,1.27-.845.557-1.441.1-1.5-.659C237.488,144.689,237.308,142.981,238.461,141.54Z" transform="translate(-166.359 -99.133)" fill="#33b8f9"/>
        <path id="Контур_17995" data-name="Контур 17995" d="M244,144.643c-.764-1.01-.252-2.169-.363-3.254-.081-.824-.015-1.666-.018-2.5a2.572,2.572,0,0,1,1.8-.267.255.255,0,0,1,.084.246c-.021.087-.045.129-.066.129a2.363,2.363,0,0,1-.521.357,6.573,6.573,0,0,0,.072,4.515,1.333,1.333,0,0,1,.5.393.321.321,0,0,1-.093.381Z" transform="translate(-170.591 -97.064)" fill="#219af6"/>
        <path id="Контур_17996" data-name="Контур 17996" d="M282.676,139.528v4.24c0,.464.138,1.031-.6,1.112-.6-.725-.345-1.6-.4-2.415a8.09,8.09,0,0,0-.2-2.484.4.4,0,0,1,0-.464l.809-.066Z" transform="translate(-197.09 -97.669)" fill="#1c8cf5"/>
        <path id="Контур_17997" data-name="Контур 17997" d="M155.67,237.377a4.954,4.954,0,0,1,2.2-1.867l.425.617a6.166,6.166,0,0,1-2.034,1.564C156.033,237.64,155.769,237.661,155.67,237.377Z" transform="translate(-109.029 -164.948)" fill="#b332fe"/>
        <path id="Контур_17998" data-name="Контур 17998" d="M251.854,204.7l-.3,1.2a3.835,3.835,0,0,1,.3,1.8c0,.5,0,1,.021,1.5-.018.92-.039,1.837-.057,2.756a56.321,56.321,0,0,1-.258-9.348h.3Z" transform="translate(-176.141 -141.898)" fill="#126ff1"/>
        <path id="Контур_17999" data-name="Контур 17999" d="M280.115,139.62v.3a9.075,9.075,0,0,1,0,5.093l-.3.024a6.455,6.455,0,0,1-.171-3.778,14.688,14.688,0,0,0,.165-1.615Z" transform="translate(-195.719 -97.788)" fill="#187ef3"/>
        <path id="Контур_18000" data-name="Контур 18000" d="M248.529,138.725v-.267a.56.56,0,0,1,.27-.108l.027,6.385-.324-.258a1.868,1.868,0,0,1,.021-.342A7.79,7.79,0,0,1,248.529,138.725Z" transform="translate(-173.724 -96.899)" fill="#1778f2"/>
        <path id="Контур_18001" data-name="Контур 18001" d="M348.661,186.808l1.525-1.2v.6l-1.525,2.1h-.279a.437.437,0,0,1,0-.617Z" transform="translate(-243.912 -129.999)" fill="#1675f2"/>
        <path id="Контур_18002" data-name="Контур 18002" d="M107.94,132.283c-.458-.425-.195-.989-.279-1.5.156-1.393-.3-2.828.3-4.195Q107.946,129.448,107.94,132.283Z" transform="translate(-75.39 -88.662)" fill="#d13afe"/>
        <path id="Контур_18003" data-name="Контур 18003" d="M191.33,342.7a9.272,9.272,0,0,0-.321-3.05,3.851,3.851,0,0,0-.3-2.1h.345C191.243,339.252,191.977,340.939,191.33,342.7Z" transform="translate(-133.57 -236.415)" fill="#1985f4"/>
        <path id="Контур_18004" data-name="Контур 18004" d="M253.076,136.642c-.138-.809.3-1.672-.246-2.439l.521-.953c.129.533-.177,1.157.333,1.612.482.512.111,1.085.123,1.633-.132.446-.018,1.064-.749,1.1A.941.941,0,0,1,253.076,136.642Z" transform="translate(-177.078 -93.327)" fill="#32c9fb"/>
        <path id="Контур_18005" data-name="Контур 18005" d="M139.563,265.011l-1.576.132a.5.5,0,0,1-.336-.045.243.243,0,0,1-.1-.225c.015-.081.033-.123.054-.123l4.794.024c.084.048.114.1.084.144s-.06.069-.09.069l-1.2.033Z" transform="translate(-96.34 -185.427)" fill="#25a5f7"/>
        <path id="Контур_18006" data-name="Контур 18006" d="M220.69,202.007a2.031,2.031,0,0,1,2.421.324l-2.78.252Z" transform="translate(-154.316 -141.311)" fill="#bc3cfe"/>
        <path id="Контур_18007" data-name="Контур 18007" d="M252,182.808v1.5l-.3.3c.015-1,.027-2,.042-3h.243l.159.159A.866.866,0,0,1,252,182.808Z" transform="translate(-176.287 -127.197)" fill="#1c8cf4"/>
        <path id="Контур_18008" data-name="Контур 18008" d="M153.747,265.023a1.014,1.014,0,0,1,0-.213l2.981.027v.174a.189.189,0,0,1-.3.048h-2.1Z" transform="translate(-107.678 -185.469)" fill="#31c8fb"/>
        <path id="Контур_18009" data-name="Контур 18009" d="M1.768,196.13c0-.213-.033-.428-.048-.641a4.255,4.255,0,0,1,.3-2.139c.015.324.03.65.042.974A1.5,1.5,0,0,1,2.217,196a.321.321,0,0,1-.449.126Z" transform="translate(-1.205 -135.42)" fill="#c138fe"/>
        <path id="Контур_18010" data-name="Контур 18010" d="M229.649,3.67c.62.743.2,1.615.3,2.424A5.467,5.467,0,0,1,229.649,3.67Z" transform="translate(-160.842 -2.571)" fill="#a42efe"/>
        <path id="Контур_18011" data-name="Контур 18011" d="M124.861,264.8H123.63c.653-.563,1.408-.246,2.127-.249.1.057.132.114.1.174s-.063.087-.1.087Z" transform="translate(-86.588 -185.225)" fill="#1985f4"/>
        <path id="Контур_18012" data-name="Контур 18012" d="M130.74,264.971v-.261h2.1v.249a.641.641,0,0,1-.9,0Z" transform="translate(-91.568 -185.399)" fill="#2095f5"/>
        <path id="Контур_18013" data-name="Контур 18013" d="M250.64,158.241c.2-.213.4-.428.6-.641-.051.5.183,1.049-.24,1.5C250.886,158.807,250.763,158.523,250.64,158.241Z" transform="translate(-175.544 -110.381)" fill="#25a5f7"/>
        <path id="Контур_18014" data-name="Контур 18014" d="M130.425,61.589c-.542.572-1.231.228-1.855.3A3.169,3.169,0,0,1,130.425,61.589Z" transform="translate(-90.048 -43.133)" fill="#dc3dfe"/>
        <path id="Контур_18015" data-name="Контур 18015" d="M347.229,192.57v.617a.947.947,0,0,1-.6.9A3.409,3.409,0,0,1,347.229,192.57Z" transform="translate(-242.774 -134.873)" fill="#368af5"/>
        <path id="Контур_18016" data-name="Контур 18016" d="M115.048,191.068c-.6-.393-.27-.992-.342-1.5A2.436,2.436,0,0,1,115.048,191.068Z" transform="translate(-80.32 -132.772)" fill="#be35fe"/>
        <path id="Контур_18017" data-name="Контур 18017" d="M345.649,93.242c.03-.536-.231-1.121.258-1.582A2.874,2.874,0,0,1,345.649,93.242Z" transform="translate(-242.057 -64.198)" fill="#27abf8"/>
        <path id="Контур_18018" data-name="Контур 18018" d="M153.7,174.375V171.81h0v2.583C153.865,174.384,153.814,174.381,153.7,174.375Z" transform="translate(-107.649 -120.333)" fill="#fc46fe"/>
        <path id="Контур_18019" data-name="Контур 18019" d="M155.013,164.205l-.018.572c-.6-.644-.108-1.384-.246-2.067C155.157,163.171,154.915,163.711,155.013,164.205Z" transform="translate(-108.342 -113.96)" fill="#fd46fe"/>
        <path id="Контур_18020" data-name="Контур 18020" d="M157.02,198.759c-.1-.2-.2-.4-.3-.6a.662.662,0,0,0,.3-.62,1.01,1.01,0,0,1,.3.9C157.241,198.577,157.478,199,157.02,198.759Z" transform="translate(-109.764 -138.354)" fill="#ee42fe"/>
        <path id="Контур_18021" data-name="Контур 18021" d="M155.71,185.5c.413.452.24,1.007.27,1.525C155.5,186.585,155.76,186.015,155.71,185.5Z" transform="translate(-109.038 -129.922)" fill="#ee42fe"/>
        <path id="Контур_18022" data-name="Контур 18022" d="M79.241,149.237c-.126-.3-.252-.6-.381-.9.5-.533.162-1.2.3-1.8A3.537,3.537,0,0,1,79.241,149.237Z" transform="translate(-55.232 -102.635)" fill="#b141fe"/>
        <path id="Контур_18023" data-name="Контур 18023" d="M80,218.837a36.715,36.715,0,0,0,.971-6.2l.255-.018c.509,2.484.851,5.031,2.673,7.017a4.222,4.222,0,0,1,.255,4.006,20.185,20.185,0,0,0-2.532,5.911,6.564,6.564,0,0,0-.1,1.034.62.62,0,0,0-.3.6,9.207,9.207,0,0,1-.6,2.34l-.6.066c-.746-1.894.021-3.646.659-5.321.758-1.986.581-4.057.9-6.073a2.043,2.043,0,0,0-1.052-2.01C80.106,219.88,79.7,219.493,80,218.837Z" transform="translate(-55.837 -148.916)" fill="#c939fe"/>
        <path id="Контур_18024" data-name="Контур 18024" d="M59.88,247.536l.6-.066a5.987,5.987,0,0,1,2.058,5.9c-.276,1.558-.177,3.2-1.148,4.584-.932-.018-2.2.44-2.7-.186s.668-1.453.95-2.286a10.96,10.96,0,0,0,.512-4.515,1.891,1.891,0,0,0-1.073-1.5,1.376,1.376,0,0,1-.836-1.3c.123-.659.845-.219,1.267-.389A2.531,2.531,0,0,0,59.88,247.536Z" transform="translate(-40.786 -173.324)" fill="#dd3ffb"/>
        <path id="Контур_18025" data-name="Контур 18025" d="M77.141,233.36a1.169,1.169,0,0,0,.47.881,3.345,3.345,0,0,1,1.4,4.267,2.9,2.9,0,0,0-.132,2.3.869.869,0,0,1,.021.716,14.082,14.082,0,0,0-1.723,6.547h-.6c-.686-1.288-.225-2.607-.042-3.9a28.282,28.282,0,0,0,.521-4.264,4.083,4.083,0,0,0-1-3.017,1.021,1.021,0,0,1-.372-1.064Z" transform="translate(-52.974 -163.442)" fill="#ce3bfd"/>
        <path id="Контур_18026" data-name="Контур 18026" d="M68.376,255.4l-1.639-1.258c.153-.95.449-1.879.575-2.837.27-2.052.282-3.88-1.237-5.471-.213-.225-.234-.635-.345-.959l2.4-1.169c1.378,1.861,1.067,4.081,1.174,6.166.066,1.216-.1,2.469-.051,3.709A1.654,1.654,0,0,1,68.376,255.4Z" transform="translate(-46.036 -170.691)" fill="#d93efc"/>
        <path id="Контур_18027" data-name="Контур 18027" d="M73.985,253.859c.536-.842.3-1.771.351-2.7.081-2.1.021-4.177-.051-6.265-.033-.959-.827-1.711-.617-2.7l.6-.581c2.616,2.262,1.834,5.168,1.345,7.913-.258,1.447-.273,2.888-.449,4.326Z" transform="translate(-51.571 -169.227)" fill="#d33cfc"/>
        <path id="Контур_18028" data-name="Контур 18028" d="M82.757,276.941a4.521,4.521,0,0,1,.6-2.361c.755.9-.578,1.525-.3,2.361h-.3Z" transform="translate(-57.961 -192.312)" fill="#c437fe"/>
        <path id="Контур_18029" data-name="Контур 18029" d="M218.11,274.714a2.018,2.018,0,0,0-1.249-.968c-3.811-1.432-6.756-4.066-9.5-6.96a5.573,5.573,0,0,1-.62-1.016h2.1a19.3,19.3,0,0,0,7.73,6.211,26.613,26.613,0,0,0,5.789,1.837,1.405,1.405,0,0,1,1.154.9Z" transform="translate(-144.797 -186.141)" fill="#2cb9f9"/>
        <path id="Контур_18030" data-name="Контур 18030" d="M181.98,274.915a7.006,7.006,0,0,0-1.753-2.2,27.043,27.043,0,0,1-4.527-7.029h2.4c1.615,1.8,2.861,3.9,4.494,5.693.635.7,1.381,1.267,2.019,1.947.407.428,1.1.788.674,1.588Z" transform="translate(-123.057 -186.085)" fill="#25a5f7"/>
        <path id="Контур_18031" data-name="Контур 18031" d="M193.568,265.73a23.248,23.248,0,0,0,7.541,7.347c.6.345,1.7.6,1.534,1.354-.225,1-1.345.416-2.07.524a8.262,8.262,0,0,1-1.333,0,41.561,41.561,0,0,0-3.952-3.338c-1.663-1.237-2.316-3.3-3.691-4.767a.989.989,0,0,1-.129-1.118Z" transform="translate(-134.019 -186.113)" fill="#29b0f8"/>
        <path id="Контур_18032" data-name="Контур 18032" d="M186.137,265.682c1.549,2.559,3.014,5.171,5.645,6.855a4.411,4.411,0,0,1,2.127,2.367h-3c-.234-1-1.142-1.423-1.78-2.1a27.213,27.213,0,0,1-5.393-7.137Z" transform="translate(-128.689 -186.071)" fill="#27aaf8"/>
        <path id="Контур_18033" data-name="Контур 18033" d="M162.72,265.528l.3-.048,1.2.054c.446,2.067,1.774,3.7,2.933,5.342a23.168,23.168,0,0,0,2.4,3.149c.644.641.255,1.5.351,2.268-1.447-.222-1.576-1.681-2.349-2.532A20.163,20.163,0,0,1,162.72,265.528Z" transform="translate(-113.966 -185.938)" fill="#219af6"/>
        <path id="Контур_18034" data-name="Контур 18034" d="M134.73,265.59h1.5c0,1.681,1.034,2.951,1.684,4.386a38.285,38.285,0,0,0,7.7,11.017,21.517,21.517,0,0,0,5.27,4.494c.785.4.578,1.058.617,1.672-1.744-.422-2.957-1.735-4.285-2.765a32.93,32.93,0,0,1-6.274-6.819C138.289,273.9,135.794,270.105,134.73,265.59Z" transform="translate(-94.363 -186.015)" fill="#1985f4"/>
        <path id="Контур_18035" data-name="Контур 18035" d="M180.871,68.769h-4.494a47.036,47.036,0,0,0-2.816-6.253c-.4-.83-.677-1.471.761-1.651,1.1-.135,2.175-.12,3.263-.165a22.073,22.073,0,0,1,2.547,5.153C180.518,66.764,181.321,67.627,180.871,68.769Z" transform="translate(-121.334 -42.514)" fill="#cb39fe"/>
        <path id="Контур_18036" data-name="Контур 18036" d="M191.027,68.776a33.528,33.528,0,0,0-2.157-5.183,17.913,17.913,0,0,1-1.13-2.882h3.9c.147,1.708,1.453,2.912,1.945,4.473.387,1.225,1.219,2.286,1.348,3.6Z" transform="translate(-131.49 -42.521)" fill="#c637fe"/>
        <path id="Контур_18037" data-name="Контур 18037" d="M173.918,230.59c.09.956-.557.923-1.2.9C172.939,230.95,173.481,230.839,173.918,230.59Z" transform="translate(-120.97 -161.502)" fill="#b332fe"/>
        <path id="Контур_18038" data-name="Контур 18038" d="M215.254,60.614a5.815,5.815,0,0,0,1.07,2.7A35.213,35.213,0,0,1,218.25,68.7c-2.007.431-3.122-.464-3.742-2.34-.524-1.591-1.225-3.128-1.864-4.686-.354-.857-.072-1.154.824-1.07C214.058,60.659,214.657,60.614,215.254,60.614Z" transform="translate(-148.829 -42.44)" fill="#be35fe"/>
        <path id="Контур_18039" data-name="Контур 18039" d="M26.972,225.309q.632,1.5,1.27,2.966c-2.031,1.034-3.757.141-5.462-.872,0-1.142,1.172-.932,1.693-1.474C25.282,225.63,25.983,224.893,26.972,225.309Z" transform="translate(-15.955 -157.716)" fill="#d53df7"/>
        <path id="Контур_18040" data-name="Контур 18040" d="M17.564,224.768c-.4.686-1.474.381-1.8,1.2l-1.2.3c-.333-.833-1.27-.455-1.8-.9.5-.6,1-1.2,1.5-1.8a2.637,2.637,0,0,1,2.945.018A1.327,1.327,0,0,1,17.564,224.768Z" transform="translate(-8.944 -156.276)" fill="#cf3af8"/>
        <path id="Контур_18041" data-name="Контур 18041" d="M356.8,165.442l-.6.9a5.141,5.141,0,0,1-1.5,1.5c.267-1.1,1.2-1.765,1.765-2.655.989-1.516,2-3.023,3-4.527.138-.2.2-.638.617-.3v.3a5.115,5.115,0,0,0-.9,1.5c-.2.3-.4.6-.6.9Q357.693,164.247,356.8,165.442Z" transform="translate(-248.426 -112.225)" fill="#1476f2"/>
        <path id="Контур_18042" data-name="Контур 18042" d="M397.63,95.65c.776.042.929.551.9,1.2Z" transform="translate(-278.494 -66.992)" fill="#116bf1"/>
        <path id="Контур_18043" data-name="Контур 18043" d="M391.63,89.645a.842.842,0,0,1,.9.9A1.885,1.885,0,0,1,391.63,89.645Z" transform="translate(-274.291 -62.785)" fill="#116bf1"/>
        <path id="Контур_18044" data-name="Контур 18044" d="M12.362,189.61a11.448,11.448,0,0,1-.276,3,5.066,5.066,0,0,1-2.52.827c-1.959.327-3.958.3-5.926.563-.336.045-.851.15-.86-.494v-1.8c2.589-.3,5.171-.707,7.769-.842A1.72,1.72,0,0,0,12.362,189.61Z" transform="translate(-1.947 -132.8)" fill="#b633fe"/>
        <path id="Контур_18045" data-name="Контур 18045" d="M254.69,137.515l.3-1.5v-.6c2.061-.824,4.18-.458,6.292-.3.1.6-.246,1.276.3,1.8a10.356,10.356,0,0,1-.3,3.3c-.758-.075-.6-.7-.713-1.169.057-1.127-.569-1.405-1.588-1.423A20.545,20.545,0,0,1,254.69,137.515Z" transform="translate(-178.381 -94.481)" fill="#30c3fa"/>
        <path id="Контур_18046" data-name="Контур 18046" d="M261.893,132.749c-2.07.65-4.195.138-6.292.3-.156-1.106.21-1.612,1.435-1.522,1.468.1,2.948.027,4.422.027.357,0,.722.054.881.407C262.528,132.377,262.207,132.578,261.893,132.749Z" transform="translate(-178.995 -92.112)" fill="#32c9fb"/>
        <path id="Контур_18047" data-name="Контур 18047" d="M252.67,176.753l.018-1.5a10.454,10.454,0,0,1,6.84,0v1.5a10.7,10.7,0,0,1-6.855,0Z" transform="translate(-176.966 -122.343)" fill="#1c8cf4"/>
        <path id="Контур_18048" data-name="Контур 18048" d="M252.76,167.779v-1.5c2.217-.581,4.425-1.043,6.556.3.434.324.261.782.261,1.2A10.594,10.594,0,0,1,252.76,167.779Z" transform="translate(-177.029 -116.06)" fill="#2199f6"/>
        <path id="Контур_18049" data-name="Контур 18049" d="M252.668,181.63h6.855l.018,1.2H252.65C252.665,182.427,252.665,182.04,252.668,181.63Z" transform="translate(-176.952 -127.211)" fill="#1a86f4"/>
        <path id="Контур_18050" data-name="Контур 18050" d="M252.732,172.62h6.828v1.2h-6.84Z" transform="translate(-177.001 -120.901)" fill="#2094f5"/>
        <path id="Контур_18051" data-name="Контур 18051" d="M259.356,165.76c-2.16-.635-4.371-.147-6.556-.3v-.9c1.8,0,3.6.036,5.393-.024C259.113,164.513,259.469,164.864,259.356,165.76Z" transform="translate(-177.057 -115.239)" fill="#229ff6"/>
        <path id="Контур_18052" data-name="Контур 18052" d="M260.466,147.377c.042.413-.138.9.3,1.2v1.5c-.959-2.139-2.87-1.414-4.494-1.5-.689-.03-1.381,0-2.07,0l-.174-.234c-.189-.632,0-1.2.653-1.252C256.6,146.91,258.57,146.515,260.466,147.377Z" transform="translate(-177.868 -102.846)" fill="#2ab5f9"/>
        <path id="Контур_18053" data-name="Контур 18053" d="M252.908,144.57l.018.9c.369.449-.09,1.061.3,1.5h0a1.726,1.726,0,0,1-.6,1.5C252.747,147.18,252.327,145.837,252.908,144.57Z" transform="translate(-176.911 -101.255)" fill="#2ab5f9"/>
        <path id="Контур_18054" data-name="Контур 18054" d="M1.775,200.506a44.586,44.586,0,0,0,7.556-.686,9.21,9.21,0,0,1,1.756-.21v.6c-.336.926.153,2.376-1.546,2.442-2.7.234-5.354.632-8.042.848-.407-1,.135-1.986.021-3Z" transform="translate(-0.942 -139.804)" fill="#bb34fe"/>
        <path id="Контур_18055" data-name="Контур 18055" d="M6.595,215.082a29.732,29.732,0,0,0-3.3.674c-.968.3-1.234.051-1.225-.9a9.1,9.1,0,0,0-.264-1.579c2.016-.659,4.033-1.348,6.205-.764a1.356,1.356,0,0,1,.339,1.438,1.867,1.867,0,0,1-1.759,1.13Z" transform="translate(-1.268 -148.688)" fill="#c538fe"/>
        <path id="Контур_18056" data-name="Контур 18056" d="M17.41,213.82c.384-.584,1.049-.692,1.585-1.019.935-1.067,2.517-1.258,3.335-2.481a6.88,6.88,0,0,1,.3,2.466,12.911,12.911,0,0,1-2.148,2.1,5.2,5.2,0,0,0-2.652-.285Z" transform="translate(-12.194 -147.305)" fill="#c939f7"/>
        <path id="Контур_18057" data-name="Контур 18057" d="M8.1,210.1c-2.136-.279-4.15.749-6.274.6v-.9a6.875,6.875,0,0,1,3.236-.848c1.591-.249,3.221-.246,4.836-.351C9.731,209.619,8.871,209.8,8.1,210.1Z" transform="translate(-1.282 -146.101)" fill="#c138fe"/>
        <path id="Контур_18058" data-name="Контур 18058" d="M281.67,145.683V140.59c.719.1.6.656.6,1.127v3.949Z" transform="translate(-197.277 -98.467)" fill="#1985f4"/>
        <path id="Контур_18059" data-name="Контур 18059" d="M246.372,145.019c-.258-.03-.554-.12-.557-.39q-.039-2.289,0-4.581c0-.27.3-.363.551-.4a10.391,10.391,0,0,1,.006,5.369Z" transform="translate(-172.151 -97.809)" fill="#1e8ef5"/>
        <path id="Контур_18060" data-name="Контур 18060" d="M247.72,145.019V139.65h.6v5.393Z" transform="translate(-173.499 -97.809)" fill="#1881f3"/>
        <path id="Контур_18061" data-name="Контур 18061" d="M253.961,145.461c-.5-.425-.231-1-.3-1.5.434-.315.249-.779.3-1.2,1.885-.6,3.823-.3,5.723-.225.98.045.41,1.121.566,1.723-1.717,0-3.437.042-5.15-.018C254.165,144.215,253.856,144.6,253.961,145.461Z" transform="translate(-177.652 -99.734)" fill="#2dbcfa"/>
        <path id="Контур_18062" data-name="Контур 18062" d="M22.54,205.3c.372-.827,1.333-.941,1.846-1.6,1.363-.081,1.031-1.381,1.5-2.1l.027,2.613c0,1.213-1.055,1.423-1.834,1.867a4.847,4.847,0,0,1-.518.246Z" transform="translate(-15.787 -141.198)" fill="#c338fa"/>
        <path id="Контур_18063" data-name="Контур 18063" d="M27.77,220.7a3.23,3.23,0,0,1,2.148-2.1c.5.623.081,1.48.548,2.1l-2.4.9C27.719,221.38,27.782,221.024,27.77,220.7Z" transform="translate(-19.45 -153.104)" fill="#cc3cf2"/>
      </g>
    </g>
  </g>
</svg>
