<svg xmlns="http://www.w3.org/2000/svg" xmlns:xlink="http://www.w3.org/1999/xlink" width="229.5" height="216.5" viewBox="0 0 229.5 216.5">
  <defs>
    <linearGradient id="linear-gradient" x1="1.115" y1="0.5" x2="-0.104" y2="0.562" gradientUnits="objectBoundingBox">
      <stop offset="0" stop-color="#26ca98"/>
      <stop offset="0.505" stop-color="#e7939c"/>
      <stop offset="1" stop-color="#5669c4"/>
    </linearGradient>
  </defs>
  <g id="DUOFTM" transform="translate(4285 -3462)">
    <g id="BNBBUSD" transform="translate(-1632 327)">
      <circle id="Ellipse_37" data-name="Ellipse 37" cx="91" cy="91" r="91" transform="translate(-2608 3167)" stroke="#fff" stroke-width="5"/>
      <path id="Duo_Symbol" d="M5.077,76.153h0Zm26.654,0h0Zm44.423,44.423v0Zm44.423-44.423h0ZM76.153,0A76.154,76.154,0,0,0,22.3,22.3l7.18,7.18A66,66,0,0,1,76.153,10.154ZM22.3,22.3A76.154,76.154,0,0,0,0,76.153H10.154A66,66,0,0,1,29.485,29.485ZM0,76.153A76.153,76.153,0,0,0,22.3,130l7.18-7.18A66,66,0,0,1,10.154,76.153ZM22.3,130a76.155,76.155,0,0,0,53.849,22.3V142.153a66,66,0,0,1-46.669-19.331Zm53.849,22.3A76.154,76.154,0,0,0,130,130l-7.18-7.18a66,66,0,0,1-46.669,19.331ZM130,130a76.154,76.154,0,0,0,22.3-53.849H142.153a66,66,0,0,1-19.331,46.669Zm22.3-53.849A76.155,76.155,0,0,0,130,22.3l-7.18,7.18a66,66,0,0,1,19.331,46.669ZM130,22.3A76.153,76.153,0,0,0,76.153,0V10.154a66,66,0,0,1,46.669,19.331ZM76.153,26.654a49.5,49.5,0,0,0-35,14.5l7.18,7.18A39.346,39.346,0,0,1,76.153,36.807Zm-35,14.5a49.5,49.5,0,0,0-14.5,35H36.807A39.346,39.346,0,0,1,48.332,48.332Zm-14.5,35a49.5,49.5,0,0,0,14.5,35l7.18-7.18A39.347,39.347,0,0,1,36.807,76.153Zm14.5,35a49.5,49.5,0,0,0,35,14.5V115.5a39.346,39.346,0,0,1-27.822-11.524Zm35,14.5a49.5,49.5,0,0,0,35-14.5l-7.18-7.18A39.346,39.346,0,0,1,76.153,115.5Zm35-14.5a49.5,49.5,0,0,0,14.5-35H115.5a39.346,39.346,0,0,1-11.524,27.822Zm14.5-35a49.5,49.5,0,0,0-14.5-35l-7.18,7.18A39.346,39.346,0,0,1,115.5,76.153Zm-14.5-35a49.5,49.5,0,0,0-35-14.5V36.807a39.347,39.347,0,0,1,27.822,11.524Zm-64.827-4.5c-15.7,12.559-24.691,27.82-26.317,45.707-1.609,17.7,4.06,37.269,16.2,58.507l8.816-5.037c-11.556-20.223-16.252-37.674-14.9-52.55,1.336-14.691,8.632-27.564,22.548-38.7Zm59.65,79.005c15.678-12.542,24.687-27.636,26.317-45.383,1.612-17.555-4.068-36.969-16.2-58.193l-8.816,5.038c11.564,20.238,16.25,37.524,14.9,52.227-1.332,14.511-8.611,27.232-22.549,38.382Z" transform="translate(-2593.153 3181.847)" fill="url(#linear-gradient)"/>
      <g id="Сгруппировать_1614" data-name="Сгруппировать 1614" transform="translate(-102 270)">
        <g id="Эллипс_42" data-name="Эллипс 42" transform="translate(-2546 2870)" fill="#13b5ec" stroke="#fff" stroke-width="5">
          <circle cx="44" cy="44" r="44" stroke="none"/>
          <circle cx="44" cy="44" r="46.5" fill="none"/>
        </g>
        <g id="Сгруппировать_1792" data-name="Сгруппировать 1792" transform="translate(-2520.091 2884)">
          <path id="Контур_17242" data-name="Контур 17242" d="M31.709,26.8l10.854-6.332V33.136ZM42.563,53.94,28.09,62.382,13.618,53.94V39.166L28.09,47.608l14.472-8.442ZM13.618,20.472,24.472,26.8,13.618,33.136ZM29.9,29.819l10.854,6.332L29.9,42.482ZM26.281,42.482,15.427,36.151l10.854-6.332ZM40.754,17.457,28.09,24.693,15.427,17.457,28.09,9.92ZM10,16.251v39.5L28.09,66l18.09-10.251v-39.5L28.09,6Z" transform="translate(-10 -6)" fill="#fff" fill-rule="evenodd"/>
        </g>
      </g>
    </g>
  </g>
</svg>
