<svg xmlns="http://www.w3.org/2000/svg" width="229.5" height="216.5" viewBox="0 0 229.5 216.5">
  <g id="FTMUSDC" transform="translate(2653 -3135)">
    <g id="Group_1096" data-name="Group 1096" transform="translate(-11158.499 -1972)">
      <circle id="Ellipse_37" data-name="Ellipse 37" cx="91" cy="91" r="91" transform="translate(8550.499 5139)" fill="#2775ca" stroke="#fff" stroke-width="5"/>
    </g>
    <g id="Сгруппировать_1614" data-name="Сгруппировать 1614" transform="translate(-102 270)">
      <g id="Эллипс_42" data-name="Эллипс 42" transform="translate(-2546 2870)" fill="#13b5ec" stroke="#fff" stroke-width="5">
        <circle cx="44" cy="44" r="44" stroke="none"/>
        <circle cx="44" cy="44" r="46.5" fill="none"/>
      </g>
      <g id="Сгруппировать_1792" data-name="Сгруппировать 1792" transform="translate(-2520.091 2884)">
        <path id="Контур_17242" data-name="Контур 17242" d="M31.709,26.8l10.854-6.332V33.136ZM42.563,53.94,28.09,62.382,13.618,53.94V39.166L28.09,47.608l14.472-8.442ZM13.618,20.472,24.472,26.8,13.618,33.136ZM29.9,29.819l10.854,6.332L29.9,42.482ZM26.281,42.482,15.427,36.151l10.854-6.332ZM40.754,17.457,28.09,24.693,15.427,17.457,28.09,9.92ZM10,16.251v39.5L28.09,66l18.09-10.251v-39.5L28.09,6Z" transform="translate(-10 -6)" fill="#fff" fill-rule="evenodd"/>
      </g>
    </g>
    <path id="Контур_17246" data-name="Контур 17246" d="M762.6,561.8c0-12-7.2-16.11-21.594-17.823-10.283-1.371-12.34-4.113-12.34-8.912s3.428-7.883,10.283-7.883c6.17,0,9.6,2.057,11.311,7.2a2.578,2.578,0,0,0,2.4,1.714h5.484a2.343,2.343,0,0,0,2.4-2.4v-.343A17.124,17.124,0,0,0,745.12,519.3v-8.226c0-1.371-1.028-2.4-2.742-2.743h-5.142c-1.371,0-2.4,1.028-2.743,2.743v7.883c-10.283,1.371-16.8,8.226-16.8,16.8,0,11.311,6.855,15.767,21.251,17.481,9.6,1.714,12.683,3.77,12.683,9.255s-4.8,9.255-11.311,9.255c-8.913,0-12-3.771-13.026-8.912a2.5,2.5,0,0,0-2.4-2.057h-5.828a2.343,2.343,0,0,0-2.4,2.4v.343c1.371,8.569,6.855,14.738,18.166,16.453V588.2c0,1.371,1.028,2.4,2.742,2.742h5.142c1.371,0,2.4-1.028,2.743-2.742v-8.226c10.283-1.714,17.138-8.912,17.138-18.167Z" transform="translate(-3256.978 2708.195)" fill="#fff"/>
    <path id="Контур_17247" data-name="Контур 17247" d="M292.35,398.956a51.292,51.292,0,0,1,0-96.317,3.44,3.44,0,0,0,2.057-3.428v-4.8a2.605,2.605,0,0,0-2.057-2.742,2.064,2.064,0,0,0-1.371.342,61.682,61.682,0,0,0,0,117.569,2.084,2.084,0,0,0,3.085-1.371c.343-.342.343-.685.343-1.371v-4.8A4.566,4.566,0,0,0,292.35,398.956Zm36.334-106.943a2.084,2.084,0,0,0-3.085,1.371c-.343.343-.343.685-.343,1.371v4.8a4.547,4.547,0,0,0,2.057,3.428,51.292,51.292,0,0,1,0,96.317,3.44,3.44,0,0,0-2.057,3.428v4.8a2.605,2.605,0,0,0,2.057,2.742,2.064,2.064,0,0,0,1.371-.342,61.946,61.946,0,0,0,0-117.913Z" transform="translate(-2826.831 2907.032)" fill="#fff"/>
  </g>
</svg>
