<svg xmlns="http://www.w3.org/2000/svg" width="229.5" height="216.5" viewBox="0 0 229.5 216.5">
  <g id="FTMUSDT" transform="translate(2653 -3135)">
    <g id="Group_1096" data-name="Group 1096" transform="translate(-11158.499 -1972)">
      <circle id="Ellipse_37" data-name="Ellipse 37" cx="91" cy="91" r="91" transform="translate(8550.499 5139)" fill="#26a17b" stroke="#fff" stroke-width="5"/>
    </g>
    <g id="Сгруппировать_1614" data-name="Сгруппировать 1614" transform="translate(-102 270)">
      <g id="Эллипс_42" data-name="Эллипс 42" transform="translate(-2546 2870)" fill="#13b5ec" stroke="#fff" stroke-width="5">
        <circle cx="44" cy="44" r="44" stroke="none"/>
        <circle cx="44" cy="44" r="46.5" fill="none"/>
      </g>
      <g id="Сгруппировать_1792" data-name="Сгруппировать 1792" transform="translate(-2520.091 2884)">
        <path id="Контур_17242" data-name="Контур 17242" d="M31.709,26.8l10.854-6.332V33.136ZM42.563,53.94,28.09,62.382,13.618,53.94V39.166L28.09,47.608l14.472-8.442ZM13.618,20.472,24.472,26.8,13.618,33.136ZM29.9,29.819l10.854,6.332L29.9,42.482ZM26.281,42.482,15.427,36.151l10.854-6.332ZM40.754,17.457,28.09,24.693,15.427,17.457,28.09,9.92ZM10,16.251v39.5L28.09,66l18.09-10.251v-39.5L28.09,6Z" transform="translate(-10 -6)" fill="#fff" fill-rule="evenodd"/>
      </g>
    </g>
    <g id="Cjdowner-Cryptocurrency-Flat-Tether-USDT" transform="translate(-2581.668 3200.308)">
      <path id="Контур_15477" data-name="Контур 15477" d="M65.994,56.943v-.01c-.565.041-3.477.216-9.975.216-5.188,0-8.84-.154-10.124-.216v.015c-19.97-.878-34.876-4.356-34.876-8.516S25.926,40.8,45.9,39.906v13.58c1.3.092,5.044.313,10.211.313,6.2,0,9.307-.257,9.887-.308V39.916c19.929.889,34.8,4.366,34.8,8.516s-14.87,7.627-34.8,8.511m0-18.439V26.351H93.8V7.819H18.088V26.351H45.9V38.5C23.3,39.536,6.3,44.015,6.3,49.377s17,9.836,39.6,10.879V99.2h20.1V60.246c22.564-1.038,39.519-5.511,39.519-10.868S88.558,39.546,65.994,38.5" transform="translate(8.761 10.873)" fill="#fff" fill-rule="evenodd"/>
    </g>
  </g>
</svg>
