<svg xmlns="http://www.w3.org/2000/svg" width="229.5" height="216.5" viewBox="0 0 229.5 216.5">
  <g id="USDTFUSDC" transform="translate(2653 -3135)">
    <g id="Group_1096" data-name="Group 1096" transform="translate(-11158.499 -1972)">
      <circle id="Ellipse_37" data-name="Ellipse 37" cx="91" cy="91" r="91" transform="translate(8550.499 5139)" fill="#26a17b" stroke="#fff" stroke-width="5"/>
    </g>
    <g id="Сгруппировать_1614" data-name="Сгруппировать 1614" transform="translate(-102 270)">
      <g id="Эллипс_42" data-name="Эллипс 42" transform="translate(-2546 2870)" fill="#2775ca" stroke="#fff" stroke-width="5">
        <circle cx="44" cy="44" r="44" stroke="none"/>
        <circle cx="44" cy="44" r="46.5" fill="none"/>
      </g>
      <g id="Сгруппировать_1806" data-name="Сгруппировать 1806" transform="translate(-82.434 93.298)">
        <path id="Контур_17248" data-name="Контур 17248" d="M739.907,535.382c0-6.069-3.642-8.15-10.925-9.017-5.2-.694-6.243-2.081-6.243-4.509s1.734-3.988,5.2-3.988c3.121,0,4.856,1.04,5.723,3.642a1.3,1.3,0,0,0,1.214.867h2.774a1.185,1.185,0,0,0,1.214-1.214v-.174a8.663,8.663,0,0,0-7.8-7.11v-4.162c0-.694-.52-1.214-1.387-1.388h-2.6c-.694,0-1.214.52-1.388,1.388v3.988c-5.2.694-8.5,4.162-8.5,8.5,0,5.723,3.468,7.977,10.751,8.844,4.856.867,6.416,1.907,6.416,4.682s-2.428,4.682-5.723,4.682c-4.509,0-6.07-1.908-6.59-4.509a1.267,1.267,0,0,0-1.214-1.04h-2.948a1.185,1.185,0,0,0-1.214,1.214v.174c.693,4.335,3.468,7.456,9.191,8.324v4.162c0,.693.52,1.214,1.387,1.387h2.6c.694,0,1.214-.52,1.388-1.387v-4.162C736.439,543.706,739.907,540.064,739.907,535.382Z" transform="translate(-3148.029 2291.389)" fill="#fff"/>
        <path id="Контур_17249" data-name="Контур 17249" d="M270.42,345.947a25.949,25.949,0,0,1,0-48.728,1.741,1.741,0,0,0,1.04-1.734v-2.428a1.318,1.318,0,0,0-1.04-1.387,1.044,1.044,0,0,0-.694.173,31.206,31.206,0,0,0,0,59.48,1.054,1.054,0,0,0,1.561-.694c.174-.173.174-.347.174-.693v-2.428A2.31,2.31,0,0,0,270.42,345.947Zm18.382-54.1a1.054,1.054,0,0,0-1.561.694c-.174.174-.174.347-.174.694v2.428a2.3,2.3,0,0,0,1.04,1.734,25.949,25.949,0,0,1,0,48.728,1.741,1.741,0,0,0-1.04,1.734v2.428a1.318,1.318,0,0,0,1.04,1.387,1.044,1.044,0,0,0,.694-.173,31.339,31.339,0,0,0,0-59.654Z" transform="translate(-2698.831 2499.032)" fill="#fff"/>
      </g>
    </g>
    <g id="Cjdowner-Cryptocurrency-Flat-Tether-USDT" transform="translate(-2581.668 3200.308)">
      <path id="Контур_15477" data-name="Контур 15477" d="M65.994,56.943v-.01c-.565.041-3.477.216-9.975.216-5.188,0-8.84-.154-10.124-.216v.015c-19.97-.878-34.876-4.356-34.876-8.516S25.926,40.8,45.9,39.906v13.58c1.3.092,5.044.313,10.211.313,6.2,0,9.307-.257,9.887-.308V39.916c19.929.889,34.8,4.366,34.8,8.516s-14.87,7.627-34.8,8.511m0-18.439V26.351H93.8V7.819H18.088V26.351H45.9V38.5C23.3,39.536,6.3,44.015,6.3,49.377s17,9.836,39.6,10.879V99.2h20.1V60.246c22.564-1.038,39.519-5.511,39.519-10.868S88.558,39.546,65.994,38.5" transform="translate(8.761 10.873)" fill="#fff" fill-rule="evenodd"/>
    </g>
  </g>
</svg>
