<svg xmlns="http://www.w3.org/2000/svg" xmlns:xlink="http://www.w3.org/1999/xlink" width="261.737" height="251.474" viewBox="0 0 261.737 251.474">
  <defs>
    <linearGradient id="linear-gradient" x1="0.5" y1="1" x2="0.5" gradientUnits="objectBoundingBox">
      <stop offset="0" stop-color="#4c4b49"/>
      <stop offset="1" stop-color="#adadad"/>
    </linearGradient>
    <linearGradient id="linear-gradient-2" x1="0.5" y1="1" x2="0.5" gradientUnits="objectBoundingBox">
      <stop offset="0" stop-color="#4c4b49"/>
      <stop offset="1" stop-color="#4c4b49"/>
    </linearGradient>
  </defs>
  <g id="FTMUNDEAD" transform="translate(4272 -3128.263)">
    <g id="BNBBUSD" transform="translate(-1619 -4)">
      <circle id="Ellipse_37" data-name="Ellipse 37" cx="91" cy="91" r="91" transform="translate(-2608 3167)" stroke="#fff" stroke-width="5"/>
      <g id="Layer_2" data-name="Layer 2" transform="translate(-2453.557 3321.45)">
        <g id="OBJECTS" transform="translate(-189.18 -189.187)">
          <circle id="Эллипс_388" data-name="Эллипс 388" cx="88.909" cy="88.909" r="88.909" transform="translate(0 125.737) rotate(-45)" fill="url(#linear-gradient)"/>
          <circle id="Эллипс_389" data-name="Эллипс 389" cx="70.379" cy="70.379" r="70.379" transform="translate(26.206 125.737) rotate(-45)" fill="url(#linear-gradient-2)"/>
          <path id="Контур_17250" data-name="Контур 17250" d="M314.718,214.469q-.282-1.328-.685-2.677a47.382,47.382,0,0,0-3.187-8.055.031.031,0,0,0,0-.018c-.251-.7-8.3-23.3-39.8-23.3-31,0-40.04,23.441-40.572,24.9-.014.025-.019.043-.025.053a49.122,49.122,0,0,0-2.392,6.424,33.773,33.773,0,0,0-1.425,9.178q-.021,1.269.055,2.515c.021.426.055.853.1,1.273a39.318,39.318,0,0,0,4.16,13.868l.012.021c6.679,13.253,18.715,21.765,18.715,21.765l-.068.245-4,14.44a6.875,6.875,0,0,0-.249,1.818,6.788,6.788,0,0,0,13.043,2.634l3.249-7.685.856,4.7a8.67,8.67,0,0,0,17.064,0l.86-4.7,3.249,7.685a6.786,6.786,0,0,0,12.789-4.452L292.4,260.417s21.218-14.989,22.949-36.194c.021-.245.039-.492.051-.738A33.181,33.181,0,0,0,314.718,214.469ZM261.335,246.31c-6.591.454-20.455-3.864-23.866-17.047-.033-.132-.066-.265-.093-.389a10.123,10.123,0,0,1,.1-5.39,10.226,10.226,0,0,1,16.2-4.95,25.014,25.014,0,0,1,4.61,4.95C265,232.909,265.631,246.016,261.335,246.31Zm16.365,8.746c-2,3.087-6.671-1.1-6.671-1.1s-4.672,4.183-6.673,1.1c-1.536-2.385,3.278-7.127,5.556-9.161a1.672,1.672,0,0,1,2.237,0C274.43,247.929,279.242,252.672,277.7,255.056Zm26.941-26.18c-.035.123-.062.255-.1.389-3.413,13.183-17.273,17.5-23.858,17.047-4.3-.294-3.677-13.4,3.05-22.824a25.3,25.3,0,0,1,4.61-4.95,10.229,10.229,0,0,1,16.2,4.95,10.122,10.122,0,0,1,.107,5.388Z" transform="translate(-145.683 -108.471)" fill="#ffeee9"/>
          <path id="Контур_17251" data-name="Контур 17251" d="M314.767,401.65h0c-.014.245-.031.492-.053.738-1.725,21.2-22.945,36.194-22.945,36.194l4.061,14.685a6.786,6.786,0,0,1-12.788,4.452l-3.253-7.687-.855,4.7a8.674,8.674,0,0,1-17.068,0l-.856-4.7-3.247,7.687a6.784,6.784,0,0,1-12.787-4.452l3.994-14.44.072-.245S237,430.071,230.318,416.818a.043.043,0,0,0-.012-.025,39.461,39.461,0,0,1-4.168-13.87c-.043-.42-.076-.847-.1-1.273h-.064s-3.124,22.279,20.05,38.172c0,0-5.046,17.08-4.52,22.034s6.054,7.981,10.134,7.2,7.635-5.924,8.818-9.214c0,0,1.476,9.332,9.951,9.344s9.792-8.546,9.792-8.546,2.369,8.16,12.373,6.975,6.844-14.61,6.844-14.61l-4.088-13.169S317.36,424.406,314.767,401.65Z" transform="translate(-145.047 -286.635)" fill="#cdc0c5"/>
        </g>
      </g>
      <g id="Сгруппировать_1614" data-name="Сгруппировать 1614" transform="translate(-102 270)">
        <g id="Эллипс_42" data-name="Эллипс 42" transform="translate(-2546 2870)" fill="#13b5ec" stroke="#fff" stroke-width="5">
          <circle cx="44" cy="44" r="44" stroke="none"/>
          <circle cx="44" cy="44" r="46.5" fill="none"/>
        </g>
        <g id="Сгруппировать_1792" data-name="Сгруппировать 1792" transform="translate(-2520.091 2884)">
          <path id="Контур_17242" data-name="Контур 17242" d="M31.709,26.8l10.854-6.332V33.136ZM42.563,53.94,28.09,62.382,13.618,53.94V39.166L28.09,47.608l14.472-8.442ZM13.618,20.472,24.472,26.8,13.618,33.136ZM29.9,29.819l10.854,6.332L29.9,42.482ZM26.281,42.482,15.427,36.151l10.854-6.332ZM40.754,17.457,28.09,24.693,15.427,17.457,28.09,9.92ZM10,16.251v39.5L28.09,66l18.09-10.251v-39.5L28.09,6Z" transform="translate(-10 -6)" fill="#fff" fill-rule="evenodd"/>
        </g>
      </g>
    </g>
  </g>
</svg>
