<svg xmlns="http://www.w3.org/2000/svg" width="229.5" height="216.5" viewBox="0 0 229.5 216.5">
  <g id="FTMBTC" transform="translate(2653 -3135)">
    <g id="Group_1096" data-name="Group 1096" transform="translate(-11158.499 -1972)">
      <circle id="Ellipse_37" data-name="Ellipse 37" cx="91" cy="91" r="91" transform="translate(8550.499 5139)" fill="#f0972b" stroke="#fff" stroke-width="5"/>
    </g>
    <g id="Сгруппировать_1614" data-name="Сгруппировать 1614" transform="translate(-102 270)">
      <g id="Эллипс_42" data-name="Эллипс 42" transform="translate(-2546 2870)" fill="#13b5ec" stroke="#fff" stroke-width="5">
        <circle cx="44" cy="44" r="44" stroke="none"/>
        <circle cx="44" cy="44" r="46.5" fill="none"/>
      </g>
      <g id="Сгруппировать_1792" data-name="Сгруппировать 1792" transform="translate(-2520.091 2884)">
        <path id="Контур_17242" data-name="Контур 17242" d="M31.709,26.8l10.854-6.332V33.136ZM42.563,53.94,28.09,62.382,13.618,53.94V39.166L28.09,47.608l14.472-8.442ZM13.618,20.472,24.472,26.8,13.618,33.136ZM29.9,29.819l10.854,6.332L29.9,42.482ZM26.281,42.482,15.427,36.151l10.854-6.332ZM40.754,17.457,28.09,24.693,15.427,17.457,28.09,9.92ZM10,16.251v39.5L28.09,66l18.09-10.251v-39.5L28.09,6Z" transform="translate(-10 -6)" fill="#fff" fill-rule="evenodd"/>
      </g>
    </g>
    <g id="BitcoinSign" transform="matrix(0.978, 0.208, -0.208, 0.978, -2553.057, 3191.715)">
      <g id="Сгруппировать_1691" data-name="Сгруппировать 1691" transform="translate(11.848 5.89)">
        <path id="Контур_15474" data-name="Контур 15474" d="M72.487,53.518c5.506-2.8,8.952-7.739,8.147-15.962-1.084-11.238-10.8-15.006-23.055-16.079l0-15.588h-9.5l0,15.178c-2.5,0-5.047.049-7.583.1l0-15.275H31l0,15.584c-2.057.042-4.077.082-6.049.082v-.046l-13.1-.005,0,10.132s7.015-.132,6.9,0c3.846,0,5.1,2.234,5.463,4.16l0,17.757V78.495a3.356,3.356,0,0,1-3.571,3.144c.122.108-6.91,0-6.91,0L11.85,92.967H24.209c2.3,0,4.566.038,6.786.056L31,108.787l9.488,0,0-15.6c2.61.053,5.13.076,7.591.073l0,15.526h9.5l.005-15.738c15.966-.916,27.144-4.935,28.534-19.916C87.233,61.076,81.552,55.692,72.487,53.518Zm-31.767-21.2c5.357,0,22.205-1.7,22.208,9.476,0,10.719-16.845,9.467-22.208,9.467Zm0,49.394,0-20.887c6.436,0,26.625-1.85,26.627,10.439C67.349,83.052,47.156,81.711,40.715,81.715Z" transform="translate(-11.848 -5.89)" fill="#fff"/>
      </g>
    </g>
  </g>
</svg>
